<mxfile host="app.diagrams.net" modified="2024-04-12T05:00:34.813Z" agent="Mozilla/5.0 (Windows NT 10.0; Win64; x64) AppleWebKit/537.36 (KHTML, like Gecko) Chrome/123.0.0.0 Safari/537.36" etag="TGeNOXo55nBRoVnAOEGB" version="24.2.1" type="device">
  <diagram name="페이지-1" id="sBpsg7rdrkc8E5yvVOG9">
    <mxGraphModel dx="1514" dy="1637" grid="0" gridSize="10" guides="1" tooltips="1" connect="1" arrows="1" fold="1" page="0" pageScale="1" pageWidth="827" pageHeight="1169" math="0" shadow="0">
      <root>
        <mxCell id="0" />
        <mxCell id="1" parent="0" />
        <mxCell id="ga3veHkGnYiuSKG9S9Qy-7" value="Traffic" style="text;html=1;align=center;verticalAlign=middle;whiteSpace=wrap;rounded=0;fontSize=16;" parent="1" vertex="1">
          <mxGeometry x="-489" y="-589" width="124" height="30" as="geometry" />
        </mxCell>
        <mxCell id="ga3veHkGnYiuSKG9S9Qy-8" value="Guide" style="text;html=1;align=center;verticalAlign=middle;whiteSpace=wrap;rounded=0;fontSize=16;" parent="1" vertex="1">
          <mxGeometry x="-489" y="-424" width="124" height="30" as="geometry" />
        </mxCell>
        <mxCell id="ga3veHkGnYiuSKG9S9Qy-9" value="Notice" style="text;html=1;align=center;verticalAlign=middle;whiteSpace=wrap;rounded=0;fontSize=16;" parent="1" vertex="1">
          <mxGeometry x="-489" y="-212" width="124" height="30" as="geometry" />
        </mxCell>
        <mxCell id="ga3veHkGnYiuSKG9S9Qy-10" value="Qna" style="text;html=1;align=center;verticalAlign=middle;whiteSpace=wrap;rounded=0;fontSize=16;" parent="1" vertex="1">
          <mxGeometry x="-489" y="-37" width="124" height="30" as="geometry" />
        </mxCell>
        <mxCell id="ga3veHkGnYiuSKG9S9Qy-11" value="Data" style="text;html=1;align=center;verticalAlign=middle;whiteSpace=wrap;rounded=0;fontSize=16;" parent="1" vertex="1">
          <mxGeometry x="-489" y="187" width="124" height="30" as="geometry" />
        </mxCell>
        <mxCell id="ga3veHkGnYiuSKG9S9Qy-12" value="Member" style="text;html=1;align=center;verticalAlign=middle;whiteSpace=wrap;rounded=0;fontSize=16;" parent="1" vertex="1">
          <mxGeometry x="-489" y="368" width="124" height="30" as="geometry" />
        </mxCell>
        <mxCell id="m1NRcoiXuXsXT9jAsaJI-1" value="" style="shape=image;verticalLabelPosition=bottom;labelBackgroundColor=default;verticalAlign=top;aspect=fixed;imageAspect=0;image=data:image/png,iVBORw0KGgoAAAANSUhEUgAAAVQAAABsCAYAAAA1zErBAAAa1UlEQVR4Ae1du67cthbVR9mAp01/PyCVYSCeT7jAba4bF64yv5DWjTufr0gTIFVOkyZV4CIwkCAPX14siova2qIkjkSNqDlbwAEpPjbXXiSXtjjnzGm+++4799tvv236c4sxtvbB7G+7Roxf4/foa8A55xqKHW62ujDGPV2//PLLPblTjS+182r4brtUaudbskGsJqiSlcw8yctsbs0yGaidV8OXOZGFmtXOt3STWE1QJSuZeZKX2dyaZTJQO6+GL3MiCzWrnW/pJrGaoEpWMvMkL7O5NctkoHZeDV/mRBZqVjvf0k1iPa6gPl7c6XRxj9Ir5MfKdbsV9yRvhQnrmmCgOK9cC0wTY15TVBzfNYNntN0M38PZNU3jf84PGUDYZCXvm/lDfAVTYt1fUEF6mCxOWtOc3cPcZIzVj5VvQN7Q5KO7nNqF1/nS3p8uA+kfdn/iJVyUSRrCOunxODfXrGeaNJxfOItPPuCDCF0lQPlQki1n8al9loftwZ2bk1u0fCXvMp9EPyy81p9mDucCDENU6RJirUNQ5UJM4x2WjpEzVj60sLiE5E0auAGOyfEPWDnJq+fz7M4nsbnnOGY905WczOMLb0wYb25zr8SS6p6ND509xsbNiqpvd3bXBKYRm+Rd5mOD6cxV/kybamsXYMgxizbEWq+gSueRj0/XsKFG6xvXLBHoXOYEeZNdJD7fsI1euwUcnvwPOLqAUHSRbWyT8nty0GNXclEmvSCfiPxIEMuYsiPvdcr6hWkWPoypxdSXcX75QBhZDyteZLLwSd/JD8qSGLFGibvdVw+XU3z9jxGhtENb2IOxvP/m1nvLkHhU/mp/fP8WcxzD+wXOFYbz2R8ZXs7wr31gPKZ8U5jGbom1DkGVk+bz8pUfBIknJCeJqWsJ5B6r5gw14hNTIMWA+TjhoZ1/VYS/I34Lc/eW5aJM+iX4fDiHyIplTNmR9zpl/cJ0Ht9pKKZT88g1ADwyvxk+/ZkD1xjTMDB5w63Ma1zErNvwnumcHW033M/yrXWDgRTG9ZoBEeUDTPni20xE6PRtBJsuJtY6BJVESJScjOB4/0xSCC7bsa++Z3nBlORNmkzi6BbuQBSiMbQ5uQsiV71g5IMltr+fzCSvkk/mdUoqdDnvWb8wncWHebuc+29IGHt0HhPrYSE2dJvFN9hnYfwpjJo73bYXiQbw7MMUxTKf6eP1/nSGGW3GSFVjSOFBmZyrAV+dfZ0j1mMIasoxEsKUHup7lhdMSd6kyREcrZB2G2m40ISgpvyeHPTYlZO8Kj6xYc6X8Jseqi5yynKmK+nJxec3M1+ZZsYerIcVGHPxxSGIjWmsEBlZh7w8zmAdU3bjPVOUyzzbzaRX+yPtIcJsGpctqMCX8k3anMgTa/2Cql/p6VScoCBA4ezJL+aNhYjkEUoyjfhUrZ84MdG6HRaCxw+/Jl5JlNl7uJ3kVfMU1oXnynPaHQvFNcA+TFeSlI+vPa9rN/PMPHrsYj2swJiPD4NIXDKvAEjuZN5r5Kldq96HCf5hUrVRoyRvr/NHmoA/PDZTr/x8y1O+aMGPa0iancgT6wEElZPRPxzvDrzD+VMI1U/hsHnF2f4EbW0VyZtsqCcsNk6c68jXDE442vtFqPyOdu4vM8lris/48AFV3YclcQ2wD9OVlF2HrxUpL6qT86jWwwqMs/h660wIDcYcw6i4Q0TN47fIs+8+wX/wiX17UeOEv9f5A1zwST0cfKTaiX3EkNAJ1vnINlE/ATUet+wvqFMoK62bnOg5zEIEfFO1YOe633P9Kl5vQMwm+PR6WOHHJvhW4Fnb9Uj+EKsJ6oJZJ3kLujo8BXm85vuboEYa1/AajWyY2QLfYD2swL8FvhVwVnc9kj/EaoK6YNpJ3oKu1mWCgdp5NXwTk7dBVe18S5eJ1QRVspKZJ3mZza1ZJgO182r4MieyULPa+ZZuEqsJqmQlM0/yMptbs0wGaufV8GVOZKFmtfMt3SRWL6j4Rn37MQ5sDdgasDWwfA1AYC1ClY8ZyxsDB2fgzZs3boufg9NyM/gmqDej2gYyBrZnYAsxhU278hgwQc3jyVoZA4dggIIKsDo/V0bhZD+ZHsL5CkCaoFYwCQbBGCjFAEWQ9qRIokzWyzpdznumtGfpNAOjgvr777+7P/74w3358mXaQkYtDrrtMgaMge0ZkAKIPC/mU/Us0210OW1ZOs7ApKB+88037tdff3X//PPPuIWMmoGg3tNfB+X4ktMmg8cn1QScTX1bkPr78cE3C21NVsDHv2vnlxQP/iZef4NR/Hv67u/LS0KlCMKmzs+VmaCun4lJQf3qq69cCVG9a0HNmQMT1ByW+m08Z+P/8mT4bUDiy0j6lra503PKv8nX5bjXX3iz4behaRHVIkkyZDtZxjxStqENWWf5NAOzggpR/frrr92PP/7o/vrrr7SVmdK+oLZfbcYnO7+xpv1XBO032cS/dfeLkd9us80TfQb6fDU3UEiHfih/F/23s3kYd9eCvEKouCBY5r96Tn1bEgiI9TdgYzBW+Mq4sXJCGtSzokwqRbBkvgy6+7eSJagQ1X/9619eVP/888+rWekLqlr4WGDyez/5pO99X2P4ejZurKsRbNiBG2TUD+XvhlDuyjR59d/OOPMvT6LjQdTi/YYZgQ+jxIhZlft/bSIjUl1fGGJJEZW2CsO8W3PZgkpRxZnqtZHqrKCmFpxeeLiXr061TAlxMiUueS/zrLd0mgHJGfM6HVi4saDG81DxjyGBMVVOrPSB95beFQPZgrpphGqCeleLqogzSngQAcZ/eVLlK3/wWuL24qqOqmR9EaLMSE0MZAnqGjGFs8kIldGmXmDxvv2QgW/5/pWKNzUxSLxMiU3eI09/WW/pNAOSP9+yXQ/8F+HxFTtaaetzvw0+dluaGeALhnQ5jrDk3Ov6peNbvyoZmBVUfMr/888/u7///nuxAwNBDediyX81IBcc8vH1ST3pF6Mp3JF4mdK8uue/V7jZhieOo6aKP+9GPF9vnfKiGteH+uLurf1O4cOYifIWp/5PtpWu5615u3P7k4Ja4lemwF9KUO+cV3PPGDAGniADk4Ja4pf6wakJ6hNcWeayMfAEGRgV1JJcmKCWZNNsGQPGQK0MREHFN05v9WOCWuv0Gy5jwBgoyUAU1JJGtS0I6qfPX+7mB/7dkz+1+FI7r0fA9+///Ndt8bPHGqmdb8kJsOIyQV0g9CBOkmn5Mg/L2nk9Ar4txBQ291jjtfMtOQFWXCaoJqi7bBa5GJnHgmS+xvQI+Ciov//5vxipMs8UbZhnmurHMqR7zEftfEtOgBWXCaoJ6i6bRS5G5rEgma8xPQI+iiCEkmKpU7RJlcly2mG6x3zUzrfkBFhxmaDWKKg/fOuePf/Wfb8Am5zkT59/cm+fN6559fE6ofrw2jXNC/f2hzKv8n1M4zaxIHPb7tHuCPgogFIwZT5VzzKkbCvLkDe+x9ctuOG1j6BqwdD3q4Vk2vm1i2PzjVWIj+/fvejEFDbFXxU9e/dT2CQf3ctY/tq9J/cQ1SKinj8XPV4D3g7nF/dJ8eL9i9gb12tLPwqmPXwF7a5dj+wPfBRCKYzMM5XCKctkOe0w5Ri3TGvnW3IBrLhMUBdsDBAnySyeV8KxzD6EUkSZH167lx8obl3d+1dNLO8JcIhuuz7su13a49Vz8Nq9fC58ELx4rD3Bbx8MW4pqD9+CdbNsHvP5Bj4KoBRKnU/dswwpf2gL6dbYU/Zr51tiBlZcOwhqeA0NkcWzdx/b11J1323ksPk/4DUYG4xfON0JgY9cYqQiNuBGix7ERTKxyRsR2X0G3va+H0EFXEEU3r6CH+zXigG/dPvlu/aVv23T+ks+sm1ORpiYA+DpsHp/hGDhHmNtKVCRwzBPA14hmPCDRxYRX1gT+kgi1ueLkMYwdd/Dt9Hamhp/rg74pAiWzM+NvUV97XxLn4EV1w6COnx1069yn+QmYh6bRUVcrSBNi4J0ulQexElbMsrrYZebrueHeBikIkHvq2iDvr1oLAjGqM0ZMYzCo7gTDwPvH+1LPzbM93iNGL+4yC/LmA6waH/KCmsP32DssmPJ9ZWbB76SIipt5WIo2a52vqWvwIqrTkEVG3uwmeJCDlEKItcYnTJ6ZeS3zSIHcZJMKaLvX4kIGRtfYoMoajHQ9/BPl8l75OdsTkaXgTcf3WkBUvdy3Mj7NpyCzx6vcmzmdTrApPAP6tdh7+ErbLu3nhbarh3ftT4eyR9gxVWpoDIqERuEmykuNtS9cG/9UUCJT8TzNxuI6y8OvEJDxD+6l4wkgVdG1MTPlH7oe5TrMt4jzbE5KqiBs/iqLPhNjVtJhAqucfzAo5Dv/QNXPLimuGRdgXQ47/lrpr9etulXO75rOTiSP8CKaz9BjeeHQUDkPTd3Iz65pahwY8TXYIiCeD1m/YYpiNOLw2/4V6+7M0eF1599piLUsVd+CjO5SPQdt/nF+ahZ25BiHPiJbwBBtOJ55agobyMG4LPHq+LvkxfRJh59RN/jPLfrYMsz3x6+OO52fOg1NndfO745/Lr+SP4AK659BPVzG4HiQxhuAGxsed/+DqWIQnx0xld6pOK1XtdJIdlg4YM4PfntB2MCk/DR+wWxTYiit6Pwd5FY2KxCXMjTrE0VxXkBkkcFkftWiGCvx2lK6DfgUvLY41X4HNvEh2jLi/aJH9zF9oXx9vAVtl0Cc+34rvXxSP4AK67dBHWWXLV5Bq/BOy5oEDeLf0d8xOYFh5+QX4tH839t/wXta+fV8N02Gq+db+4zpLyqFVT5KuqBpyKWBZtWkrA0f5yJtr+UWjrHqX61z3vt+FKcTpUdyR9gxVWtoE4RvXcdiNsbwz2OXzuvhs8i1LF9h7WBKwrqVl8uDbv2BdOBbUuMAWPgrhmIgrqllyaoW7Jrto2BjoE3b964LX66ESw3xYAJ6hQ7VmcMHIyBLcQUNu3KY8AENY8na2UMHIIBCirA6vxcGYWT/WR6COcrAGmCWsEkGARjoBQDFEHakyKJMlkv63Q575nSnqXTDJigTvOzT+3jxZ1OF/e4evRHdzk1rjk/XGfp4eya5uQu6wFcN661Xs2AFEDkeTGfqmeZbqPLacvScQZMUMe52a+mkKA+Xk4JMX1w555YP7hz/Auqs4vSC1HttbsxHeCgadxJqrrixfsXsau2N4Zby3AUQeDR+bkyE9T1s2iCup7D8haUcCwbAELZjzKjAAmhfDg3jgFsX4Db6JZ1yzCs6OU5OLvzSfggePFYhR/OtQ+GngCvGP6oXbWIapGkX7KdLGMeKdvQhqyzfJqB2wtq2BSXc/d3+XHToi5GHCJaSmOvo9Rjllixsdv7KGDepyAMPf/ZT0aJjTtf2lf+FEfZNscizDB++zbfYfVk9uqcw1i7CRSxwA8uEJZ58RRCy5UQ61nw9FIpgiXzT4/JZR7vI6hNFxW5uPFbUen2Tup1dZmTW/eSUZ73h07IgSkM2PTSf5eIBHWbyJE06FwcS7d3E2LYEx0lqF6oKPLCvhr2JrcCZ+SXZUwHQLQ/gwZ3X1BSRKWtuyeukIP7CKp8VePmYErHcB8iPRZVm1IsvQaJyMn70EXi/kwy5afkA05OtcmxWUpQNY5bToAcm3mdDvCYoA4osYKbMmCCWoRuRJmI7MQHPtj88gxzTAxYLnHoMt4jzbG5VFA5DrGIBwWLbpYqLDh+4FHIo73y32wabKDrGKhHUP0m6Y4C/Flh6tX5Ov9u1tpv+PO5O3NMCEIyQh175ZdRK20xDV55jtBOlfvqsWMC1Ta+TgcRjueVU6J8C1YVTn7oxN88iL5HLO2R0W5nvhGHZZ4yAxUJqt/Bx/tQiqsHAqCOKCBW7Rc3N+4EsR0TP9+3a9tFYsG4EJdsm4kozotQ/NCPD69WiFqc4vw0JfT09Rap8DkOpx4SaX9ia8sYAzdn4PaCenMXn+6AXnCWRvlKvJ4ui+a5MZDPgAlqPlcHbGl/KXXASTPIB2bABPXAk2fQjQFjoC4GoqDaF0zXNTGGxhgwBo7HQBTULaHjC6bH/nXAEcvB1RFx1465dl6PgO/f//mv2+Jnj7VTO9+SE2DFZYK64B/9gThJpuXL/K+h2nk9Ar4txBQ291jjtfMtOQFWXCaoJqi7bBa5GJnHgmS+xvQI+Ciov//5vxipMs8UbZhnmurHMqR7zEftfEtOgBWXCaoJ6i6bRS5G5rEgma8xPQI+iiCEkmKpU7RJlcly2mG6x3zUzrfkBFhxmaDWKKg/fOuePf/Wfb8Am5zkT59/cm+fN6559fE6ofrw2jXNC/f2hzKv8n1M4zaxIHPb7tHuCPgogFIwZT5VzzKkbCvLkDe+x9ctuOF1TEEtJjjTJI0tos03ViH/vn/3QojpR/dS/JVUJ5iy/LV7TxGHqBYR9XyOe7zq8cEJRP4D0u6vytq/8Ari79t0dc/e/VRUCHr4yFNFKfBRCKUwMs9UCqcsk+W0w3RsL2xZXjvf0ndgxWWCumBDgDhJZvF8EUGFUMooE/dCMIPf71817uWHVvT6AtxGt6wr7mOCd82rxIa8F8hRbhL+XhuZJzBJvzU+WVdDHvgogFIodT51zzKk/KEtpHv4VzvfkhNgxXV7QQ0b4u0rRBJhg/ciC1EmI6S4kcJrbIhS4iaLUYsUkfzoSJIzlwdxsY3HLoWqEy4vUBpXyv/P6NNFVi/fta/8LUdtOYUt26aO8PwYEie46bB6fyLHncCWjvIibwnx6vGKeuKRHLNs0F/5MqhfvxYG+DYYY4qfuTrgkyJYMj839hb1tfMtfQZWXPsIatNFRe2m7u5jlKQ3jryX+RlRkE6XyoM4aUtGUp8gZKnIiOXA3vM/EQnqNgNxDOIwavOLA499MeyLdlunRUjd0/6NhEPzCo59ZPr8RYyivciKh49/5Q8PXrT19yn+C/iQwifXwd554CspotLWHr7VzrfkBFhx7SOoycgziIQXk9fufU80RbSCjSHrgvi0Z2mM8nQktj460eTJeymi71+JCFljg98Su/aFm36qTY7NzylBlRxAOIFTCegODyfJIxakvPf5KS7Il07xIIDoFhbWJD499o73teMbzO0MV0fyB1hx3YegSoGemaRrJzXVHsT1yxFlQsQ/upfE4oVPietaQc21OSuowJsQVC1eFUSovYcn5lZjHJ1v/bCQD5Rl+eG8L7PTXzvlbNSO71q/j+QPsOLaX1B9VDTyys8z1iAQ8VNnLyyMQrFxuv7XTtqS9iBO98Mr9stXr7vXbLXx/VFGSlDDrzbxjNTbVX2jiKjycZtfnI+aKe4QnQ+v1Wtzy588rvD2RFSH+/6xQbnNr/nDfYrX6DuFU3EQ7aBcYB/0Y/8VaRLfCnsReyEbteO71t8j+QOsuCoQ1BB1xHMxCmX72spX+WcQKyEQPC/zGx6bKfZvNv91HxA3WBweQ4cd9cQIHyL+lCAo/PxQKv4equiTbdM/qFSELDjqBLx9ILU8S/yJs91CG3/AXbA7yquYdy+Uwo8WN/xs8XK9dL8WVu4hkMS3MSdjXKXKa8eXwjxVdiR/gBXX7QW1ogU4NZlTdSBuqr6WOh1xXoULr/tSyG4wb7XzavjKPZxy1mLtfEsfgBWXCeoCoQBxksx68yFqk6/COf76D3VEdJvTp0Cb2nk1fCaoY3sdawOXCeoCIQBxY8Ra+fJNVzuvhm/53C7ZF7XzLX0CVlxRUO0LpgMjlhgDxoAxsJCBKKgL+2d1wxdM22UMGAPbM/DmzRu3xc/2yO9jBBPU+5hH88IY8AxsIaawaVceAyaoeTxZK2PgEAxQUAFW5+fKKJzsJ9NDOF8BSBPUCibBIBgDpRigCNKeFEmUyXpZp8t5z5T2LJ1mwAR1mp99ah8v7nS6uMfVoz+6y6lxzflhtaVJAw9n1zQnd1kPeHIYq5xnQAog8ryYT9WzTLfR5bRl6TgDT09Qi4nVOKmrawphfLycEmL64M49sX5w5/iXR2fXSe+V5RDVnt2VLGh74ASi/YCUX4LDNIi5b8Oyxp2eoMJTBMG+zs+VmaCuXLPy16bWmxq3UNWn/IXEatzbAjVFMEIQ+1GjF1iIkRC+h3PjGMBKAb623Lk2GqatAiw4iQF5L5Cj3Gh/H9y5JJgSDt3AhhZRLZKEINvJMuaRsg1tyDrLpxnYKUKV0U/Y0L3oIkRKfvOc3RmvrQ3ahVdYnw8O9fqJSOV0cZdzF620e6vrD3tFIhg/vo7s2vsoYD6iSmFjP8XHpX3lH+J3LtumjvA4/55THidgXGJwMB6OGq4tb40DWxFONVbJccTIRkwVZhY/sVSKYMn8E6Nxsbs7CGoqkmkFhQFFjJT8RgpCJM/polioTcTN5vt1kZeL7aVoLOZs0FFGUn4sOiJbAgPKNbZUZKfbSPxZNlvhTYobOfJ2FH+O90w5GO+Z6vJwTx9ZXSD1kenpFKNo8td9CUoXcaOtL0/xXwDLEUyUFFFp6wi+14Dx9oLa29CBAl3mBeXsHmR5Ku/bdVFou8lUPwyR6luSfSEkD2fxmq3x4VVbYtHYiGmqTY5N7/JItNizPSaQ15YH4D3bdGZlqm3q+5R5zAfeCp6wsKZosbLtGTi+oIrzwEiX3nTyXuZjh7UZRN14dRYf+GAceYbJcZlySH2Pcl3Ge6Q5NpcKKseJkWoAOVse2okHC91bncaxNZY5y/qhMNfe6o2B9QzcXlBTr7h+A3ev6L1Xfgqm3Fgxj03T9Yt0xPpQIu+Rl+eGsdO6DDCfz+fuDFGOGQTOfxikypMf5ug2vGca3Tq1HzCpcl8NcSN30jXVVh5XRN6d630glFOOIdAuecwgx782r/AOHja0h3YyItX92M5SY2BDBnYQ1BCBiV998fsAGyCWhQ9K5KaYysd+4TxNtgV56p5nbUU3P8ZQQs1x8Pp5gtimXvmJT/hwDh9KxV/rFPizbfqHlDh+oKjLcfzvSLUPpXhcEhfbteWps/FobHlG+O6NeJ71MQ/87H/gaL8Xu5xy67mcgX0EdTle63kFAzKyvKLbsqZjEfEya9bLGDgkAyaoh5y2XNAhapOvwrldr2nnPwTqR8PXdLe2xsC9MGCCei8zaX4YA8bA7gxEQbUvmN59LgyAMWAMHJyB5uD4Db4xYAwYA9UwYIJazVQYEGPAGDg6AyaoR59Bw28MGAPVMPB/lnUEa8B4m/AAAAAASUVORK5CYII=;" vertex="1" parent="1">
          <mxGeometry x="-449" y="-554" width="340" height="108" as="geometry" />
        </mxCell>
        <mxCell id="m1NRcoiXuXsXT9jAsaJI-2" value="" style="shape=image;verticalLabelPosition=bottom;labelBackgroundColor=default;verticalAlign=top;aspect=fixed;imageAspect=0;image=data:image/png,iVBORw0KGgoAAAANSUhEUgAAAYsAAACfCAYAAAAI0PWyAAAgAElEQVR4Ae1dsa7cuhHVR9mAt02fD0h1cYHc/YQAaeLGhSvfX3itG3e+X+HmAamemzSpAheBgRe8JA6DQ/FQwxG1K60oidKOgAtSQ3I4c0jNIam9u81PP/3k7M8wsDlgc8DmgM2BoTngnHMNCv/5z38u+rdGH0v7YPqXnSOGr+Frc6DeOZCQBW6WukAW93D9/e9/vwc3V/exdlzNvnWnRO14r4vG8r0R77izWLJLI4sl0T2+bk7WWj01+9YdmdrxXheN5Xsj3kYWBbEmqAVVmirnXO24mn3rTtPa8V4XjeV7I95GFgWxJqgFVZoqI4vZc+Bo8/Jo/swe4IUVEO/9ksXXZ3c6PbuvGqghua63wD1BXUD1XassjivnCNOZ6Ba3b6Y9uvli9r2cXdM0/u/8onu9cD8T98X8uWDyPRcR7+3JAhMnTDhOvKY5u5drE2qofEi+wmgT1H5XX93zqX2oOh/b+9Nzj+76ze9cMoyrcy7MnwTHa3OA5Uxn4nvVPrmoCQF2UnBd2j71/I2z7cWdm5O7afpK3GV+pJ9X8Vb+NNfsvMGGkaYeohrxroMs5MM0Ft6hAR6Sj9U7ox5BvahiQ/su2lVx4UVcPZ5ndz6JwHUNY5Yznen7dfvCDhj9XQtcM23JNR9tHxp7Gxt3lTB8vbObsqGItkncZT5WuJyZ5M9lVW3pDTaMUXuUOsS7XrKQA4h8XC2EoDBY3rjmFvIpMLIE9aIqabev2O46uoczrNhecMyGINjtSGKdHB4XO9134UVciSdW7ASIMqZ0n/c6ZfmN6Sj70KcmCi/j+JLsBubDjA3oKPuk78QHsqyNmKO0u33eXp5P8UgqruSlHurCsxnl6Y472R1Ke1R+sj++fWtz7MP7BcyVDeezP95+PsO/lgy/5nxTNh35lnjXQRZy4vm8PIbCIIsVDCcaU9dOAsYJP7l3RRbOORnomI+TOUxDf3wBHAbwOPBs5WTNuhjnAWAMK2LKmLIh73XK8hvT6/ad+kRxaRw5B2CPzC9mn373xznGNHRM3HAr89ou2qzr8J7pNT1ab7i/ireOJ4wH6NfHEhAEyVn54utc2FnRtwHbjigm3nWQBQdTIs0JFQYvPesXZMJ6bKvvKV8hJagXu8ra1z2UvYAXlaHOyT1jx6EfBkmmsf5xMhdxlXgyr1NCoeW8Z/mN6VX7MG7P53THi74HxzEzH260Dc2u2td7/kL/l2zU2Om60Jmro+W6zgg/p/vTKeUuIe4wUCRtkHk2g0yOVQ8vVjxmSrz3QRa5weGgMuU46XvKV0gJ6sWuBuxrSaILEskE9goFWeTwuNjpvgsv4qrwRDA4P4dPyqmyiCnlTGfCM9Y+H6i4Bb7Sd28+zLBxrH2xC9rGNBaIjCxDXh6xsYwpm/GeKeQyz3pX0sn+SH3YGTSNG00WsC/nm9R58Dzxrp8s9DETByZOshBEw5mufyA3CqYElSZm02i3KvWTUkxiXQ+T3PsFfy9sk5XaI9xexFXjFOaLx8pj2h1hxrnBNkxngjTevvZ8vA1UV8bR2y7mwwwbx9uHTqRdMq8MkNjJvI//p3aueh8u4A+Vqo7qJXs7zR+pAv7wKFcdQ3F3rnzRZBbnkFR78Dzx3gFZcEKlL9SSLW5YLfgVQ3hBNeN94M1DT1AvKtCTMVbOnKPKrS8nM+r7B0zhEfUcL3MR1xyekVgBVffi9cS5wTZMZ0I2zb42AHvCuDiOaj7MsPGqfck8E0EUfQ7ZqLDDTohHxRFn3/wC/sEntk1W+xf8neYP7IJPivh8zOiILNrAOSL6Z9nW8UWYtGqWeG9PFqu6vWxnBPWmXkSA8+3Vw3iTzoM0moXrChgsYp+eDzP8WMS+GfbMbXo0f+bisXR74m1kURBpgnqLSqxeeJzt2xtZRBjn4BqVLJhZwr7efJhh/xL2zTBndtOj+TMbkIUVEG8ji4JAE9SCKk3VtU/zVIBQ7eNeu31Th/Bo/kz1f+36xNvIoiDyBLWgSlNlZDF7DhxtXh7Nn9kDvLAC4m1kURBoglpQpakyspg9B442L4/mz+wBXlgB8fZkgR8nsj/DwOaAzQGbAzYHcnMAfGQ7i4VZ2dQbAjUg8PbtW7fEXw2+mQ3rIGBksQ7O1oshsCkCSxAFdNp1PwgYWdzPWJund4wAyQIQ6Pw1GUmB7WR6x5DenetGFnc35ObwPSLAAE/fJQFAJstlmZbznin1WXp8BAbJ4tdff3X/+te/3I8fP2ajgBcmi172D2yLwmvK94+ADO7I82I+V06ZrqPl1GXpsRG4SBZ//OMf3T/+8Q/33//+dxYKd0kWYwhsTJ1ZyB+wMTC79K2h6vuIet8wujQkwT5+TxJ/QKf3HUv6m0zj9zN131dU0lQGeOjU+Wuyw5HFnOduTtuSAzpWV0F7L5LF7373O1eCMO6SLMYMZsGBHNPdIep4zIZ/RrX/raDii/vWAECPKb/jSctxr78ccsFvS9YEoQmA0Mh6UsY8UtahDlm2i7wei10YfaORBX29ShYgjD/84Q/ur3/9q/v3v/99k8UJWXjjB34ulF8vHVZZ/ruS/EPFb7QUq65ELn5KNZGrb9C8yfobG3k/ux+AaX+msfWj/Q6o9uuquQId+42bN1pznGbEFUGYX6ZFmZ8/mTGP5SvA0OsrfC32kJwm9cpZUCaVAb5kvox187TIbxa++pOuLvPcAfuxOzuOU0j7zzV8aRcofLb5+yryp1rTnWaYs15nFxvPL52tnOrD7Z5d35aufYkd9iiyAGH8/ve/94Tx22+/TR7ZHlnILTgeer/Cah2LoPhe0q8V9pPCV0jlHsD4Ww+KUBZcrV0EQk4q+fsTXGmiMetcVGSFCQICs/hle5QxTRrgJgTsnnwBgbIh7nSU3P9cqpyburywaSUJQuoqbOZ8dVxEaDzlvcyHwM6408WYAVPYFmn2uc7EMV1Xz8dEZyAOHxdF/lJ80/oXijGjyYKEgXcYU3cYPbKQD4kHLvxcaCLPBFMPivhJVY5nAjZ3IUwFebD+Gqm0SfpFOWyQ+TVsOkIfEjPmddrzc2WyiKvUoR2vkNNW+sB7S8cjAOw05hpPeT+UR49e14WYwbZMaSXvmVJOnToGSHt9XsU1qYd5pNfa6f7YVtpzY340WRTdWUjgSpNFovtGVEo04yAxpU55L/Mst/QyAgozrAS5zf/KuaR/+Uq1udzBzNKhvqQcefm+Al3K8pkm3FVzj6U4eiSOTAmGvB/Kcxz02FAHyxFjpI5LcllGPbptTi7rMM+U9ZlqubyXeda/MR1FFnOIAnZd3FnELVNm++Yf/u53HrotIlaK3QSJW31V/0ZMyjTjIDGlVnmP/KWJyTaWdghI/Ly0PZJsf3IWMTf8pGds0Zav9k6oZ18wRMv9MYNYweryaL9lLiKgcIvjD7l4tqIcypKydn7cdAwlF6bRjkwci2X0JO2T0mTBINvE/Ih29I+2oa3AIfZ1Q+YqWeDTUH/729/cf/7znxvUt016ZJFspdQDI8r8AHpnM0dK/mFr5fJnHNuJwPqZ7f7NXkxsyAFmyubqnj/ZuFowox17TRV+3o244Gid8oFBz6O1/M3Zh74z8tbOcAQb7RXPw1o277wfPkP+Ja74WVQ5D5IYgbdY4Wdg/XOHsRmLP8eRKbGT94m+Rux8WZmEpeKU1iEDvsxHW0N8k+3QhbpPfBUmTM1eJIsSH5uFQT2yoONTrbX6hoAhYAgYApsgcJEsSvxDHrwysthkbK1TQ8AQuBmB9siHH3/t0u74+2bVO204SBYl/UnIoqRi02UIGAKGgCGwCgKRLPBrSEv9GVmsMpbWiSFgCBgCiyEQyWKxHsIx1LfvP9zR/4Dh0X3cwr/acd2DfX/681/cEn82H+4jrmGOG1kUJLHag8YWD3aJPmvHdQ/2LUEU0FlifKfqqB3vqf7UXh944zKyMLLY5IGf8oBgok6pv3bdPdhHsvj1t//FHQbzTFGHeaa5dpQhXRtr9Fc73ltgsmSfHnAji7JbSJvEZfHkA1A7rnuwjwEeJEAi0Cnq5GRSTj1MOUZrprXjvSYWa/QFvHHZzmJPO4ufP7hXrz+4L7Nt/sW9e9245vHztJXhpyfXNG/cu5+XIYWhiY+JOlRWg3wP9jG4SzKQ+Vw5ZUhZV8qQ3wL/2vHeApMl+wTeuIwsZgfeLnAC0CUH7Vshsvjy/k1HFNAp/iP01ftfgg+f3UOUP7mPxAmEUYSwOtyuYZbgGuzt7PzhNC7ev2h745K69KNgmthXUO81XMaWwz4GeRn0mWcqSUHKpJx6mI61oWS92vEu6WsNuoA3LiOLgg83AF10cIuQBUhA7A4+PbmHTwzcXdnHxybKE3L53u5KujZsu1ya4OoxeHIPr4UPAhdva0JmLektSRiJfQXnU6m5BPsY3CUJ6HzunjKk/KMupKVsnKKndryn+LKHusAb1/pkER/27ntRfOAJD/y7RyX//sOlK8UQJJSeh0/haKXpgpxfccYVpgguCz3QADQOPuxrxIr8O4JWez/szwfX+s92baDjf48+vG+PoaZhpHRe3BkAQ+DU2er9CWPD4y/Yv2TwjRiGcerhCjKAHzxGi/bB7sw4x/JlCC2xb6G5pTGZcg/7ZIAvmZ9iR6m6teNdys9a9ABvXNuQhXyg/Tn4k/vog6sI9ENBjUHC1w+BwesQeb+yvBzwlhgIACr1ytX5N9qtgwnl2v/cCl7XQdtkFR2C4aDOlngHAz3057ATROf9o37ty0L3Ca7Rxh8u4ksZ054dai70yueRSGJfYd1yPt2ah30lCULqutWmOe1qx3uObzW2Bd64tiGLJMCF1eAnBqrw4MoHH/m4Q2jaAKnLqZNy3ca354p9XnAYGlAAmpSJoPrxUax4tW2wnXYz2Oh7yLVM3iN/CaOgd3hXIFflOriqe9kv7V0wTXCVfTOv054tyv5e+bz5kNhXWHcyn27UXbt9U308mj9T/V+7PvDGVT9ZIBDInUguMFCGh4l5pjc+YLcMCABN2+FYBwT12T1IMrvmj/RD2q994j3SMTrDkV5/ZyGJAoFTBVf2Q1sECab+zgu6Q7oSXJUtID8ez33xdgtSpr2qzVA/t8oT+9hnRWnt9k3F/Wj+TPV/7frAG9f2ZIHAc2llrR50f96v68s6MY+AJ461Vnh4AageSB/MHp+6M/5oXxtYs/54WzMvklXbIWIc1vnD+eMwEhf6gU5JNAGneMTDd0Z8PzBIOMsQBfBMcNUYeIIIu03aKv0L5X2CLGdvYt8K80zPsWv3tdt3zX5dfjR/tH+13QNvXNuQhTwu4UtgHQTEPQIXX/K+QuAdRRYMhF3b7Pl+wYcbgPYG2gfj9Pjrqj+0ybft7O9W0CHQTcGIOtXq2xNLMh78qGlLti3u0v4MiUXd5QKwxDHBVfgc63DBEezQPi39ya3EvoWxiD5P6Kd2+6b6dDR/pvq/dn3gjWsbskhWfssEmLUBRX+4tuh3ap8+mIqdwqT2KjBPajshwEm9teNq9q37DNeOt5y7R8gDb1xGFjcGsNwkAKA5eX2ydncQP3o6FgMQRebIamn/asfV7DOyWPoZ2FI/5jeu9clibGDaYT0AuuWgHrXv2nE1+4wsjvrswS9ekSyW+uEj6LUfPyLclhoChoAhsE8EIlksab6RxZLomm5D4DoCb9++dUv8Xe/ZahwFASOLo4yk+WEIXEBgCaKATrvuBwEji/sZa/P0jhEgWQACnb8mIymwnUzvGNK7c93I4u6G3By+RwQY4Om7JADIZLks03LeM6U+S4+PgJHFnsb467M7nZ7d19k2f3XPp8Y155dpml7OrmlO7nm+AdP6tdqzEZDBHXlezOfKKdN1tJy6LD02AnWRRbFgeNBBK4TP1+dThihe3Dkhohd3jv/ZfXaRVkAYSb2VsQYGTeNOkrEULt6/aLuqu7K5tXTHAA97dP6azMiillHc1g4ji23xn9a7CorTGrM2SCDdHcTgKkjg5dw4bjxScml3JSyj1tVSj8HZnU/CB4GLt1X44VxLegm5rGZsPR1pgtAEQEtlPSljHinrUIcss/xxEVifLOLD3n3nURt4wtFIWBGenl/8UUkXlEKQe8FRDIKFbu+cg+64ohTBZIvx87aIFbkPWu19DM7e1mBnCHjPZ/jFdnJ137jzc3sM1dZp/Sc+o3UO7QxC/+0JE/qlDQFXEYDR12bBl3bCj875cDwX5og+JmObLeZBJX3KAF8yX4l7ZsYKCGxDFnJl68/BQ2DSD7UMCMyjTrb95QC3Apa9LuTq3NF+XYty71e3mncus4LXddBWBPGoelAn+HQg0CfYKywF0fk+qD92uGJG2BnxpYxpzxztT6/C4QUlCULqOjxw5mBEYBuySAKcWA32HvbuIe8FhuhCaI8dR9xVcNchVsex/ooZEVRfzmKnAz+lrcBD+67vYbaWyXvkr+n0KgqQhex3RTh9V7Jv5nXas6mbR70iExgChsAoBConC+dakhAPOwNDdE+QRUJCscKGGewOQFji5THslzsj+sOU1up7yLWM90jH6LyVLNgPbRMkSNFqqbIFOyUez331OyBByjRKtaHYUkPAEBiPwPZkgcDDIO+DntoNeJn4RIt+8GN7kIY8xhkPwpI1fTA7n7szfmU/yr3/Sj54DEWsYDTbMA2ODOt0YN8Ob+m40hF3coFg4vuBS4Qj9S2VV3byBTbnUPQ99t/Oi83esUQ7LGMI7BuBbchCHpfIF6k+lrVHSN3DjdW5WC0iWAy112UysG41Tt6mlAARiPljTicQCezsBcFABsLXbgUdnBFtRuvMrL59gJX9+M/JtkG2tVPan3mXsia2wufYrSLAvD+xtmUMAUPgBgS2IYspQVwFgriavsFZa9Ii4IMpP0k0FRQ9HlPbW31DwBDYJQLVk4U8DvEI51aWu4R+S6Pb3YE8WhplDYhCvhsZ1cgqGQKGwBEQWJ8sjoCa+WAIGAKGwJ0hEMnCfvzozkbe3DUEDAFDYAICkSwmtJlcFT9+dOSfHaRvAIZ5S8v91GbtuO7Bvj/9+S9uib8t5nnteG+ByZJ9Am9cRhYFf+sbgC45aPequ3Zc92DfEkQBnVvMydrx3gKTJfsE3riMLIwsNnngp0xuTNQp9deuuwf7SBa//va/uMNgninqMM80144ypGtjjf5qx3sLTJbs0wNuZFHuqMQmcVks5eSvPTjswT4GeJAAiUCnqJOTSTn1MJXjtFa+drzXwmGtfvZLFj9/cK9ef3Bf9I5gSK7rLXi/+CQu5uMv7t3rxjWPn8usDD89uaZ54979vAxhLI7rzDmxB/sY3CUZyHyunDKkrCtlyK8VsGQ/teMtbT1CHnjj2t8x1FDAHJLPDARTBhuATqk/uW4hH7+8f5Mhis/uISHhz+4h/lf3k/sYcRyQgzCS9uWII8EVGDSNe/X+lw5rhYv3L9qu6kY/FrJvAf2T54myAfgxyMugzzxTSQpSJuXUw3Subbe0T+aD8vUWfdbm8rMAvHEZWRScbAB00YmnguJtfSHYp7uAGFxFsP/42LiHT+0kkuQyJP/2vd2tsM1ttuUnbYKrx+DJPbwWPghcvK3Cj2/fW3JLyKXgmMPPxL7CukvgCPsY3CUJ6HzunjKk/KMupCXsm6qjdryn+lN7fT/BNyGL+LB334/EABODll8VqmAgVopxBQtdWh4Cx7tH6Jcr4nwgKjlQyST2tsn+EbTa+6yfWbvlKr5xD+/bI7jWtxa/i9jldA7tAELd9nivs9XjE8uG5B2pLBGUe7iCDOAHj9ES+8S8YeCO5cvMgcQ+9llRCvtkgC+ZL/n8jNVVO95j/dhLPeCNa/2dBR5cubL1590yqIYHOgaDNmAyKH6LD/6A3OvvVsVrDggAlf3JVfi36I8KWJT37M6s1HUdtE1W0Qo7Xf/7DweiygZ01I26FCn41TnGaEiu+i0cKBNchZ0RX8qY9vrXdqsx6NWfVp7YN1OXnD+l8rCvJEFIXaVsnKKndryn+LKHusAb1zZkEYMSHko8yGE1iId9YKcQX2gzIDDlw8l7ppSvmALQZPBJBN9/uI+PYsULG8f6Ke3Xvsn7MTqXJgtpj7R7Zj7BVfbBvE57/RlZJPOyh880ctxaVzIfdu7L1liO6R9446qHLD6pHcdQAJgqX3EyAdAUfOwOwoqcBAn7SY6w7Zo/0n7WpYz3Y3XeShbsR+8sojwEG0GOKQ7zglGCq+oTOyUez32RCw9iJDGWsoL5xL6CekthWLt9U/08mj9T/V+7PvDGtT1Z8CglEwTaIxax8wjB7qJc6VkTWACq+/PB7PGpO/pR9vn3FyASJc++MNZ1eM80BKphnT+cPw4jccnApnTEIx5iHt4PDMnhN/rNHnHJfm7IJ7gqO/kCm8dx0ffYD+bPsp+ISuyL/c4jSD2P5tzXbt9U347mz1T/164PvHFtQxbyCEa8hEYg4o8CvUKAZVADoYQ2V+W9YLLeQwtAewMJe4SPKM/6mbPbt+0w6VbQwSfRZrTOzOrbB1gxJu37oTbItrjLd0pD8sw7lkKBM8FV+Byx5oIj9Jf3Z7l5kNhXyOfoWwF9tds31dej+TPV/7XrA29c25AFSaDAg7A2cJf6A6CXymsp88GUnyQqNQYqYJf0tXZczb7liDg3j2rHO2fznmXAG5eRRalguYPP23cTtt0FxI+ezsXA7/zEC/y5+lR7TNTO9nUD05h+zb51x6R2vMfMmT3VAd641icLFQj2BNo1WwHotTpWPj2w1I6r2Td9TOc8B7XjPce3GtsCb1yRLOzHjwIilhgChoAhYAj0EIhk0SspKMCPH9llCBgC2yHw9u1bt8Tfdh5Zz2sjYGSxNuLWnyGwAQJLEAV02nU/CBhZ3M9Ym6d3jADJAhDo/DUZSYHtZHrHkN6d60YWdzfk5vA9IsAAT98lAUAmy2WZlvOeKfVZenwE9kcWX5/d6fTsvh5/bPoeFvP9q3s+Na45v/T7uCR5ObumObnnuwT/EjD1l8ngjjwv5nPllOk6Wk5dlh4bgbrIYkwwHFPnqGNWyPevz6eOKKBT/Pf2KTLBiztH+dlFWgFhbEnWun9v/8k9v6R+tP95Hoht0MejTpS+XwzwKNH5azIjiz6e9ygxstjTqBchC5CA2B28nF23wejKXs5NlCfk4tpdSddmfQClbch7ghvEpvOptfTFnbc0fn24fI+aIDQB0CxZT8qYR8o61CHLLH9cBNYnC/9Qn90ZxyBh5do+u+FoJMhiAIirW7FK3HJlO3Yu+NWsWJE7BK323gffAb+ez8CF7dBG4PTcHsG1dVo5495onXplnviDMQDOna2+WAVi9NXtQBIF69zQHokxZT0LlC+98vsQyABfMn8f6JmXQGAbslAr2xgckwdePeQsY7qD8ZMrYIcgzcgubaccfjXdat7lVvC6zlDgH9Tp3MVAH7FV2Aui86ZTv/Rj5bzfUZxOcffjAjZcgPg0LCpQ19/n8F/Z7q26K0kQUtdW/li/6yOwDVkkOwMEpsyuIffwY8UdA9r6YE3uUQTVl7M4+tG+AQ/tl75H51om75EXuxD/XkGWB+OHyUKMgyYHfZ/ROxmbuQ20Dfo+px/jAYzumDRysJjMEBiDQN1kkZBKcGdMUBjj+Sp1cKyDI6UXd6YvsJ/kCBvoD1Pape9lXV1nrE7fXe4ISRIFlKudhbZFkCBNWT3VNun7QYOUb4P1rMAQMAQkAtuTBQJPEkjT8/reInB0UJBubpfHSv58Pndn/Mp+lOd3AZkXyartENEM6wQPCLwBC3RK8gpQySM0r08MBO43fWdBuzlvcvfBD++fsD1ixnJLDQFDYBQC25CFPC6JL3Nbe3m+3H/B3QwE1VF+blfJB2MSYOojjkROIBIEPU0EqOrb9l9wx39zEG2I21WdftfQHYl5IkjGI3y6yNdj39L+DIltga7w3XevsPLHTZ4EW3vbe/jT+b6F2danIbBXBLYhC7ki3CtyO7Zb7xQmuaJ3JpMaW2VDwBDYKwJGFnsduVl2h9W2PJ4Zow9EYSvzMUhZHUPgcAisTxaHg9AcMgQMAUPg+AhEsrAfPzr+YJuHhoAhYAjcikAki1sVjGmHHz+q8ecCS9sELErrNH0//BSrGYfaxx32/enPf1nkb4txqR3vLTBZsk//AK75H9xLOlOLbpvEy/wWc+247sE+I4tl5mYtsWdJO4wsvpefPLUHjSUn1JK6a8d1D/aRLH797X9xh8E8U9RhnmmuHWVIlxz3Id214z1k917lwBuXHUMVJA0AutcJUbPdteO6B/sY4EECJAKdok5OJuXUw3SLeVM73ltgsmSfwBuXkcWeyOLnD+7V6w/uy2ybf3HvXjeuefw8jdw+PbmmeePe/Vx+V3ZpsmOiXirfumwP9jG4SzKQ+Vw5ZUhZV8qQ3wL72vHeApMl+wTeuIwsZgfeLnAC0CUH7Vshsvjy/o0gis/uIfkPbpKBlD+5j8QJhFGEsDrcrmGW4Kr7ByYgsE9I+R/nTIMvvg5ljXv1/pei45TYR5wqSmEfg7wM+swzlaQgZVJOPUyvjd0S5bXjvYTPW+oE3riMLAo+1AB00UEtQhYgARICAjbuBRkEPD4+Nu7hUxvQU3JpdyUsW9TfYIvGVdqGvA/+g9hk/J26o7oyR7R9a2AypQ/Yx+AuSUDnc/eUIeUfdSGdYkepurXjXcrPWvQAb1zrk4V/qJ/cA45BwkowBh61AvQr2Av1fRDjanLl1W5uIAFolHtfZBDugnJiNwO39/ODe/cIXNgObQRO79tjqLZOKyd2o3XqlXmWLDpbvT/BNh5/oa/Sq/OIWyYwJ7iinPZIjCnrtVe+9MrH73CGbOzZt0AfQ32PkcM+GeBL5sf0X7pO7XiX9ndrfcAb1zZkwQCJh8qfgyM4toGRwS8NCGIlzPoyUHz/4T4+MsDOf/hvHRwAKtvKFbD3M7eihT+Qe3+61fy375kVvK7TC/zB9wq5iUMAAAx6SURBVEGdP1w/0KeE1JKADrDqnvpXCooaV2DsdxSv38TdD/HjAsSnYQGBuv4+h38BH3L2yXmwdR72lSQIqWsL32rHewtMluwTeOPahiySXQACUThzlnKuFJnGhzrU/xmpXIVvRxIcKADKvE9FUP34KAgvBP0Y2OC39lPfw38tk/fIi11ItytLX4j3yULiJrGV5Au5uJf9xnGResrme7hew2LIJowHMCpMGln7hmzYQF67fckzMwKfo/kz1f+16wNvXPWQxXv14pQBiWmcRAxoDEj1kAYATQcSu4OwayIR+qCuiGMuWYzV+T23syCOSGEvbLtCDoIEU3+lrnL5Pq5XiDPOlZwNyreLdXPt+7KsfQX0lsK2dvum+nk0f6b6v3Z94I1re7JA4PGBVJEASYIpHz7W//mDe4ifamGQ6z/IawILQHV/WMk/PD51Z/zKH5TndwEDx1AkHeBBXUwDRsM6w7Gf1PHpSR3ltDsIeYTm9YnVOO43fWchfee8UBjEcYBc2B4xY7sCaW7cY/8F9M/VVbt9U/07mj9T/V+7PvDGtQ1ZyOMSebzBYwKWc8XNe5/yOIQ7ivY8es3gNTRYALRXhmAlfQzn7TyCegUioZ8yiCPI+LbhvL1p3EN4wc0XzTLwxXP5pnEXdfp3Q2pnI/CN74zCO6TWTmIOMs6Q2MIBcRBXiZfCqrUbfrb2Eu8l/k8ka9/CmPTm2YX+ardvii+oezR/pvq/dn0P+GZkIR/yoUnOow4EgTH1h/SsKN/LJNY7hUmTjzs7wzUuDGof99rtmzT/jCzivJuK2631qyQLuTqOHx81slhgcoTVtjyeGRP8/c5P7ErGtClQp/ZgZ/ate/xbO963BuVa221HFgWCR82g1mrbnu2qPTiYfUYWe36+rtneIwv78SNCYqkhYAgYAoaARmC1F9y6Y7s3BAyB9RB4+/atW+JvPQ+sp60RMLLYegSsf0NgBQSWIArotOt+EDCyuJ+xNk/vGAGSBSDQ+WsykgLbyfSOIb07140s7m7IzeF7RIABnr5LAoBMlssyLec9U+qz9PgIGFnsaYy/PrvT6dl9nW3zV/d8alxzfpmt6aKCl7NrmpN7nm/wxW6s8DoCMrgjz4v5XDlluo6WU5elx0bAyILjWywQU+ECaSEbvz6fMkTx4s4JEb24c/zP7rPraGWiHISR6J2Ji9YHTEBIL0i7/3Zv/2M7EJWv05Wd7pC9GOCBvs5fkxlZzJyzB2luZMGBLBSIqW6RtIiNCPbpat+TBwKtCOov58Zx4yHJZarcuXYXQ10lcJE2IO+D/yA22t8Xdy5pTAmHVtChCUITAE2Q9aSMeaSsQx2yzPLHRWB9svAP9dmdcQwSVoLdsytXrSFYoX5cMYYVrtJxfgnHKk0X4FzSTqwwT8/u+az77trDpiIrT9+/XpG39zE4e79ytrGdwuO5PYbq2+/caJ16Zc657THlERf6pQ0OysPx11R5qxy2FcFU2yoxjjayElNlM8V3lsoAXzJ/ZzDetbvbkIVc2fpzbQSm3Aq0DZYkk7jC9UEiBFnfXuT96lgFCAYS304QigycrFNwOsgVsENfdET2Qbm2LYeHriPtH6WzJZVs4E78V/g53jNlZ7xnquXhnj6yuEDqdxSnU9z9pIuDsBgIOyXU9QuTHP4FbNmDipIEIXXtwXezsQwC25CFOO5wPhCFM+dELle0wVkfLM/uRQa2XN7X63YP7Q5GtYPKXNsyuLZaRJB8OQdCY79xtxSOf6QtrDMGD9bRPkOudXqXB1b5Sd2h4D9VHsBMdAfZ3ETr1Pc5/RgP4H7HpJGDxWSGwBgEjksWDKISBR1Q5L3Myzaz8tgtYdckXh6jH7mzYr9M2Z++h1zLeI90jM5byYL9xB1GMPKqPNQTpEn3Zqexb23LNc2a8K7Vt3JDwBAAAtuTBQKJD+wTj6FIBjJoxDwCgjhu4ljH8iCQ98jLc3q2mZni6Ox8Pndn9rLPELy9/0qefTGs6/CeaXTr1GKq5L444q0cU3XlEVo8/nPOTZWjl+LvLFql6ceIlf3RO8jlTmKoXmxgGUPAEMghsA1ZyCMYGaDxIIsy/4wnsvDSVT7wl/JCVzYgy7YhEBZ7wU20vf3iZbHox/cFIhk4MtLn8Ofwgjv+24KwP57L4wX9JZ089otK2mDeHtW1R3dtbG0Jt5VL+6fKc4sAgjMjFb57LR5nffSIo7+2/84/cRw4o3tragjcGwLbkAV3BfeGdiX+yp3C4iYN7WQW79g6MAQMgZIIGFmURHM3usJqWx7PLGE7iEK+S1miD9NpCBgCqyCwPlms4pZ1YggYAoaAIVASgUgW9uNHJWE1XYaAIWAIHAuBSBZLuvXTTz8t8DvS6/6U47WfHkQ5rjH1rM60sasd1z3Y96c//8Ut8bfFXK4d7y0wWbJP4I3LyKLgb4ID0CUH7V51147rHuxbgiigc4s5WTveW2CyZJ/AG5eRhZHFJg/8lMmNiTql/tp192AfyeLX3/4XdxjMM0Ud5pnm2lGGdG2s0V/teG+ByZJ9esCNLKYdh1wbEJvEZfEk3rXjugf7GOBBAiQCnaJOTibl1MOUY7RmWjvea2KxRl/AG9f97ix+/uBevf7gvuxpZ1HM5l/cu9eNax4/L7sy/PTkmuaNe/fzPBLBRF3jobi1jz3Yx+AuyUDmc+WUIWVdKUP+VszmtKsd7zm+1dgWeOMysrhDsvjy/k2GKD67h4Q8P7uH+B/wT+5jxGmiHISR6J1OHJio8SHS+kCgIKRPSPV/cAei8nW6slfvf+n0Rb+m20WbEvsK6KPeUinsY5CXQZ95ppIUpEzKqYdpKRun6Kkd7ym+7KEu8MZlZFHw4Qagiw5+kZ0Fgn262vfkgUArgvrHx8Y9fGoDqCSXqfJv39tdDHXdgo/GVdqAvA/+g9hofz+7h8I7Km3fLT4u2Qb2MbhLEtD53D1lSPlHXUiXtHtId+14D9m9VznwxrU+WfiH+sk94BgkrAR9IAkP+7tHyMNKFrK4WhSrxNdd+4dP4UilUcEt2+6Di/plcFniuMTbrlfk7X0Mzt5G6Zewz5OYXMU37uF9e3TW+tDixyA8WqdemZMsJR7f0a+wPZZNlXdkM2c1j4maPGi0R2JMGf2JqbI5ym/fSSS27OCFK/CTAb5kXmOxxn1vPiwwpmv4sZc+gDeubchCrmx9oH5yH/2D3wX8b0MBy9cLAVYG+aEgCDlWklo/g4uXi8A4Y+IBUDkB5Ar4G+3Q+inX9uVW5LrOVJ+//3AglWzgJh7ePh1gec+UgZb3TLU83NNH7fvIe40rMPY7itdv4u6H48sFiE/DTgl1/X3hHQXHOmcfy2pIYV9JgpC6tvCvdry3wGTJPoE3rm3IQhx3tKQQzpylPATG5OHHalcGtUv5uLMIxyuyLoJU1F+GKDBYuJJBE0Hy46M4+ol9hyAGv3P2STxos5TJNmN0bkUW0s6RBCFx7OF6DYuhPjAemBeFSSNr35ANG8hrt0+O9Zj80fwZ4/OWdYA3rrrJQgZGPmQy8OTyPmiqwHwhGH/MvuzlCnlaCkDTQcURGchIvDyeaF/yaS3pL/Dg/Vidt5IF+xna7Q3Kl9tZRN9z84KybKp3QdPGOB3ftm1/3OfrzPVzq6x2+6b6dTR/pvq/dn3gjWt7suBRSgxIfNDwUMtjqSCX9XJ5KQvB0b+4VXIZbOJL0mxwoT3XUwCqBxLHPg+PT93Rj7LDv2vIkdnQMZQkUOpiGuwf1vnD+eMwqYM+Kx3yCM3rC6vxqXLggfbZoy/2fSXN4SrHz2Ou7I/jALncSQzVu2JD1Jepl7UvU++SjiXLardvqu9H82eq/2vXB964tiELeUTEF6m5hxgyWVcHVdlG5OMZddO4VwjUuh0eZFG/PQoLn6qZ8ZAD0N5Aeh/So65R9tFG4T9fcMfdhvBhtE6/CxA7LxKq7Md/Cqol6/YYUNo/VV7+01AeY+F7vBc+tHbDz+4DEJ3sOvH3xvHCvMiO+4X6U3SXqFu7fVN9PJo/U/1fuz7wxrUNWeRWthU9XLcOBgC9te2a7eROYfF+uXOcMb6142r2lSXfa3Oydryv2b+3cuCNy8hiRhDTgw5AtazO+7DalsczBXGIPvsXyukuJpZN6K92XM0+I4tb5vVe2mB+41qfLCYEib2ASTsBKPOWlgsgteNq9pUb6zHPTe14j/FhT3WAN65IFvbjRwERSwwBQ8AQMAR6CDQ9iQkMAUPAEDAEDAGFgJGFAsRuDQFDwBAwBPoI/B/EkzYrzSaBnwAAAABJRU5ErkJggg==;" vertex="1" parent="1">
          <mxGeometry x="-451" y="-385" width="395" height="159" as="geometry" />
        </mxCell>
        <mxCell id="m1NRcoiXuXsXT9jAsaJI-3" value="" style="shape=image;verticalLabelPosition=bottom;labelBackgroundColor=default;verticalAlign=top;aspect=fixed;imageAspect=0;image=data:image/png,iVBORw0KGgoAAAANSUhEUgAAAfMAAABsCAYAAAB+SFtpAAAgAElEQVR4Ae1du44kN7Ktj9IAU+76+wFrNQbYqU+4wHVWzhhjqX6h3XHGm/oKOQLWUjty2lrIWAyghaSdy4tg8jCDkWRWvotZdQpokMlHMOJEJA/JzK46/Pvf/3Zr/j0/P68qf03dKXvd2CC+xJcxwBhgDMyPAeecOwiQa36EzO/x8/r6eo9m3dym2nGlfjcPESpQQKD22CyozeKZCMDvJPOJQALAid3ZrYBA7bhSv4LjWHxzBGqPzZsDdKcKwO8k84kOBoATu7NbAYHacaV+Bcex+OYI1B6bNwfoThWA30nmEx0MACd2Z7cCArXjSv0KjmPxzRGoPTZvDtCdKgC/75PMX87ueDy7F+ucUrltt8A1AFxAFEUoBBbHFTGBVI01Jbu4flOU6Omzmn6XkzscDv7vdOlRwFYthLsVy+suAqv5vjsUSypCAH6/LZnLjR4mCEwUh8PJXa5NAKX6UvkKwAPArugXdz42k15rU3N9PHeWH93uD15SxtU5F+IlwfGaz1GPdCa+V/XTi8xAgKPIb239zP02TLeLOx2OblL4atx1fqad7N5F4GpsGt8frvmU/uqCXGEJ/H57MteT31CgSkFWKh8qd0Q7ANjbZUN9evXYUWUvrh7PkzsdFbFcwxj1SGdicV2/cGIk412bLGfqkus+WD/p7HU8uKuE7tud3JgNedRN467zsQEzSyEwyvdDBqW/hqB08zbwe51kroNI8nFFGSbxYv3BHaYsDia4AwD2dtV6+obNrr2dPMOO5yKPDYSk2h19bJOzv3fQfVf24go8ZccLgFCGFObj2qaon5gO0k/GtETuy+BfLEYK8TDjAGeQftp24CNlWR0lRqF3c39dzsd45B53d1oOZMm9GMvTE6vkdEXrw/xkBEb73o/U+Df6w8eAxKfx1+nkH22eTxILzcLuJRcHk7Vnx6kIwO+3J3M9Ufi8PmaXQFM7AkwMSF0TiJjX/WRUNZk75zQRIR9voOBOfzwrdhfsn+r1HfRDYGZVjX4XGMOOEmVI0RHXNkX9xPS6fscukff5ETEg+uj8avrZd00QY0jDwMBNLnXe6gWdbRtcI70mx8rl9WgErsamnWsxV4qP/DwrBI6FpvG7b9NzioM4GK01O8xFAH6/PZkjoLRFmABCAKXPnhXZox362muUr5ACwF7RWX3aSbNDSFGYtDm6s+zY7Q2oFzex/f1kenHVeCJvU0Bhy3GN+onpVf3Eb+dTekIkYxf9mImHibpJt6v6de63MH6fjhY721Zk5trYcttmhp3s2kVgvO9bGdhlxx26VGl/6Ty6SZmO605soSHTNRGA3+sn81yAILCQAil7jfIVUgDYK7qgT0Pi7SSe3DReoCLznP29g+67shdXg6dMQKdz+M8GUxcxRTnSmfAM1c9PjjgyujJ2Jx5m6DhUvzgEdEMaK1RG10leP0JAHVJ0wzVSKdd5tGO6GAKjfa9Hlp314eAGk7n4MhcHWibzmyAAv9dN5vYYHdDESSGQXnjG6CfQjcgPAEKlbBr1NLX+RlA3jm0nN5a3Q+zrOdoyYu/hshdXi1OID4+Vx7R9JBNjAX2QzgRpuH7NM8dmcrziR6+7iocZOg7XTwbReum8UUBjp/Oen49NrHobevAXkaaNGYWXMxEY53s9mPgej/XMMTtOAo3f7cIs3m9aLPObIAC/V07mmADSF3CSI72wovSryvCSxoz3hwaDDwB7O9gbIDbOPJvSx1W4gaS9nwCN/VHO/WV6cc3hGRc+AlX7YtYRsYA+SGdCNk6/hiA9off60cTDDB2v6pfEmZq4ZcySjgY7OUnAo6+Is+/eg3+wCX2THeAMe9m1RWCc78WH4n+ziPPzabsoi/7C/dQO599bycWBasLsBgjA77cl8w0MXWsIADhJviIg399MlpNk3kmnWbhugMEq+tl4mGHHKvrN0Iddt0OAvt8O65pGgt9J5hO9AgCndG+ekaqeJPMIxhxco5AVM2vo14mHGfqvod8Mddh1QwTo+w3Brmgo+J1kPtEpAHBid3YrIFA7rtSv4DgW3xyB2mPz5gDdqQLwO8l8ooMB4MTu7FZAoHZcqV/BcSy+OQK1x+bNAbpTBeB3kvlEBwPAid3ZrYBA7bhSv4LjWHxzBGqPzZsDdKcKwO+H5+dnxz9iwBhgDDAGGAOMgX3GgKxTuDO/09UazXpcBL7//nu3xt/jIkrLiUD9CJDM6/cRNSQCoxBYg8hFJj9EgAjUiwDJvF7fUDMiMAkBkLl0tvlrZSBt9NPpJGXYiQgQgU0QIJlvAjMHIQLbIQACxoiaoKVM1+s6W45rpJDHlAgQgfoQyJL5b7/95v7zn/+4b9++zdZYXqjghwgQge0Q0OQreXyQz9WjzLax5ZDFlAgQgboQKJL53//+d/evf/3L/fe//52l8UOQ+ZBvcBvSZhbSd9hZMOv7JSfzfeCdX31aG5KgH76f+oDv1O+Uq+9AT+ra78BeUlUQsMi0+WtlJPMlPbEzWRKbU3+oak7fW8C0N30HYFQk87/85S9uCUJ/CDIfALT9laEhXR6+jb/hTu50NGQYJpzuLzWpHzbZAjw7IeA71m25XIPoRS9bv7CulsAtQWM43U6XIS8p2kCGrmP+zhBYOS6rQusObe0lcyH0v/3tb+6f//yn++OPPyb5IiHzAOBZ/eoSfvI5/cWmdXYskwwY0gmBUbSv+TlM7OD4i1FDQFWkJySJQAHW/uc7FclDZKxHwYppZ6zwU5KlcqjSqUfFMqkm4CXzy2hHKVshoH9FsPmFNHVPQYkYi5k5Surir+xdmZMhJ6TZOR4/WRxkns7NSUDTNshPxgz3t5cpi/rm1/pOl1ZXTAspf+h+Z9fVpe2/+WkecF8hvUrmQuh//etfPaH//vvvo1XokLn+fW7sZJLfVQ4/ZRm9NHrI7TvoQM7al7mJttdyfyMCV/nl7VP4XXeUIe1YFQi1U75CgdEhnhSYchfjPOhg6xdWbUkC17IWVpPitkQAC2Ibe/pa58fOyegraXYObAg0mdZtWz+mWjQkMgNBix3+p1v9pOAO/pTO3PNJvzBvCNb6PkSbLX2w8liDyByELs/Qx+7QO2Sun8kAUKQwVq71sSTKa02hP1Loqa91HvVM+xHQmCFv044Ec2N36hcsEF3izuUQJpawcMuVY2jYgGumRGANBHLxaWNPX5fyopuXpYjW6ou+SFGPa6Qoh0zLB/q+8fmTu+i+ubyUXetnx9NytE47zg8i80V35tZ5cm2B9c7pCZzaAIf+SKGfvtZ51DPtR8BgJjtfHM29+FV8bcfswRytt+TtwlTX9yPAWiIwDQEfd+r+QMwhhVR9XcpLW6mzcQwZqC/N5bly3Qdy9Pgos+10G+SR6j62n70u9bEydnR9lcznELngMGhnPvZIpzaAERhIoZ++lnzfzYA+TFsENH6+VHbd7Q44HmvHHk39Zu8kdPQLithyfzSoFqe2PurPDBFYCAETY/FekXI1D8VyGTapa+4lHIv7drjIqYjxkKJNvC4cs+vNneEBiPB6oV2UF/T15amu2X5SaPsqHGKfHWd6yVzeZv/ll1/cn3/+OdnEYWSOQGpecIj/4jN51I07IkiQYnhzLc997+mFC5i5Wmrw8+Po514+bI4eU7xc2DffLK5nTj8ZJFPuJ0N51neRyXSncb44gBS4JgKYb/ycczrFfztrYjHMRapcdEEfvyCWOB4aq4h5pDBMXyfyDuqUDY0tD4SFu5VRIvaoa6afDKHlWFuVCnvNFsl8iX9LE1ASMt8rStSbCBABIkAEiEDFCBTJfIkvjBG7SeYVe5+qEQEiQARGIRAedeldsM+r5/Oj5LHxUghkyXwp4SKHZL4kmpRFBIgAESACRKCLgCfz19dXt9YfybwLOkuIABEgAkSACCyJwCY781+/fnP39idOuDebarCndlz3oN///O8/3Bp/NcQHdSjPpbXHJn1X9t0cbMTv8iGZT1xoCHhzHMC++cCuHdc96LcGkYtMxmw+ZmvBpfbYrAWne9ND/C4fkjnJvKpJWoKy5pttD/qBzH/7/f/iDh15pNIGeaS5fiiTtGa/ULfm56qJQ90LrjX845mcZD7d8bVP6msEzRYya8d1D/qBgIWkQdQ2lTa5Ml0OOUi38D/H4JzEGBgXA3WT+U8/uO/e/OB+nLhr3iIYVp/UF8PgZ/fhzcEd3n0Zt7P6/N4dDm/dh5/GBdZc7FfHdWZM7UE/kK8ma53P1aNMUrTVZZKf61v2X/deqj026f91/C9+l8/2x+yapIbkZ06+awWQgLeWbC9XYzMDgx8/vm2JXGSq/w/97uPPwYYv7imWv3efMJ4Q+saLqgRXO77X/6378Dm1o/n2t7DwKNq4zI2U6AecKkpFP5CwJmXkkWrS1mW6HHKQrhrvFWG4Vztrj8294lq73uJ3+dyWzPUNrMlL53WbivIC3qpOXgQDIWm1u/783j19Bqm1dZ/eHWJ5Qv5fm1192wd910strlo3yfsFSBGb1qbGN1/c09gTiSsxZvVbNQau6JIbW/QD+WqStvncNcokxR9kSZobj2Xr3Qtjsa09Nsfaw/bDYkv8Lp+NyTwc+YZd4Hfv3ofj9FL5N/erTNxx16iIacJEt2RwCHhRntdR7Wi/Cqk0154crf6BjD68k+9HRj/pg+/sPrinj82jhqZNUw5SHSzT7mwTzARzwbPV1dtjiFLGanfww4Ir4pKMN6xvgqv0hz4aY5R15BtbOvXDdOjTv6PfCmP0jX+tTvTTBLxk/trYrJ8fX3MwrD0259jGvuXYEr/LZ2MyV5OznqiLeTM5FyfxsqFrBYGAp2XrHeSvQqK5HSHKPTG1u+Ffcztg26ZEzEWZ31wvEUcsDcZqIeLtg/yNSMviKjr4Hfmbt/H0IF3ghQVQeBwgbf2xew7/BWzI6afj4NZ50W9JAteybm0bx++f52qPTfqv339T8RG/y6duMg+Ehl/EalLsZNcBZiigAl7SVpHep3fqBMHaIKQTiTTYYK/t4sZeD5H5tY/MhcCh4xUyz+m2ACkm2Cl5HVyt7blr1T/KFX/IScfCpJ7VLzf+jcpq1y/650b43PP49P1tOeFWsSV+l0/9ZL7xC1hDHSLgpW3l2FoWGl/cE3T2pAvSVKcSliDttUx0tgzXkkYiVu1QrybJ/M5cE7kEvyFzK0ctUlJ717lxurgqG2Gb1RHlndTY1qkfb0NWvwXkLoVt7fotZSfldGOXvu9i8ghxIn6Xz23IHM+J9aQs+U65TMb6OLoeZwl4NlCEPJ/kPQC8Ja7tCztl/3a4KS8es2NRIGSBPkgDgciYeZnfnD/utzL0QiDI0I8IvDy1m80vCNbzQw7XaDtI02AQ/SDlSvdOP/SfkWb1myEv6r6QjNr1W9peymvvRfq+xeKR4kL8Lp/tyTw8A5Uj0PYFuMYJeN6ZlMsErV4M2/pfpUpBIeB16ryu6WMA2JTYmyMjYydegIv/a6/6DJbpd93tyYAnao2l+MAvPJpFU/cxRvNiIl6869i7EAFpuUVcO4uS9mXBRm+xM32Rco3/k8/qtwIOGpMx+dr1G2ML244jJ/p+HF73El/id/nchMzvAUQBbw922J32KJ3liF2T6AakVTuu1O8xJ8xR980G90lOn9pjM6czy+bfT+J3+ZDMJ954At4+AjHsVvXx8xCb/Qtk7a5+K1trx5X6zZ98toqlRxun9th8NH9sZa/4XT4k8yHElmkj4G3lrEcap3ZcqR/JvNb7sfbYrBW3veslfpePJ/PX11e31t/z83MYigkRIAJEgAgQASKwBgKb7MzXUJwyiQARyCPw/fffuzX+8qOxlAgQgRoQIJnX4AXqQAQWRGANIheZ/BABIlAvAiTzen1DzYjAJARA5tLZ5q+VgbTRT6eTlGEnIkAENkGAZL4JzByECGyHAAgYI2qCljJdr+tsOa6RQh5TIkAE6kOAZF6fTxqNXs7ueDy7l9n6vbjz8eAOp8tsSb0CLid3OBzdeb7CvcOw8joCmnwljw/yuXqU2Ta2HLKYEgEiUBcC+yTzuUQ3t/8WPlxIx5fzsSVykam+Ae4YmffiTrH85FraH1kuhL7IAiQAbOV5/Y/ufEntaL4BLiwkijZu4bQ6xgABizY2f62MZF6HD6kFERiLAMl8LGJbtV+EzIWM1W75cnLtBr2tu5wOsVyT/9hy55pTgHaM+WBpHSTvFyBFbFqbmpEv7rSkMvPN2USCJXBL0FBCt9NlyEuKNpCh65gnAkSgHgRuQOZ6txdIJNlNhZ1hmLDPp/Y7uJt5ORwbh51knNzjzlLt0I5nN6j/XH94/e2Otrn25NirG/oZXM7NMXtXf+cGy7Q728ROwVGwknGhgxPh4Xh/bHkjXHRrd/zJgNMuoI/GGGUdiUbnTv1jFGgCXjL/GOjRSiKwTwQ2JvPczq0hMWyg4s7QT97tjtFpYkomczOBo25w/2Ucp3eQXlcYpMWLDVJudcvtaG0bbf8gmQ3pF4kVODmDX7weWx6Ugo1ax5l5vyM/HuPpAfBrjtfDYi8c70tbX57Df6Yee+m+JIFrWXuxn3oSgUdEYFsyjwSioLZlnsRO7pIrx/NYXefbt7v3ZoIf0V+pMiurSOxyUkfbVj+xQesvg9rrXJluM0SmF1vaJQtRQ8expF1qH9DTes4CVHW2Mu21ahqz4g85EXlgUo9YMEMEiMDdI3AfZA6S1+6yE76+1nndZ1ZeTh3kuPriTtBHxomkqUjbjm+vRQ9bhmtJh8gskrkmchnIkDPGGV0ewFOLmllw6s5Rp1Bor3XbJG9sS+p4QQSIABG4HwS2JfPccbInjfY4PTlmBykK3noCl3x8zisTdts/uka37+0fe8zOiO6n06l9Zmx08LblduY5XEzfaL8pL8sUnjZvl0tfvRAIFutHBBF/373FdUh5A3PpNGAGvMbmiIUVKe30Ttz2s+15TQSIABG4EwQ2JvNAyvGFsEAWnmRwVB5exrITsbnGs9HuC3CH5t+jTHtLAEn/pZzp7VAvkwVCxLPdoxB9lswzuIQX4OK/bSt7oLvI7ZXpF0o4Tm+eoUMXpM0z9WZB1JRp/ceW596JWABcZbuX5nFGvCAVO5vxYRv/730B7CmCCBCBXSCwPZnvApb7UVLvqFe3yp4ErD4gByACRIAIEAFBgGR+93EQdqv6+HkNm/0LZ+0pwBpDUCYRIAJEgAjkESCZ53FhKREgAkSACBCB3SDgyfz19dWt9ff8/LwbMKgoESACRIAIEIE9IrDJzvzXr9/cvf2Js+/NphrsqR1X6nd/93INcb+EDrXH5hI2Ukb3/hO/y4dkPnGhIeAxsLqBNReT2nGlfsv7fG7MsH/jk9pjk35a594Rv8uHZE4yr2pRIkFZ801P/daZkGr2+V50qz0294Lj3vQUv8uHZE4yr4o8JShrvpmoH8m81visPTZrxW3veonf5bNfMv/pB/fdmx/cjxPJeK4DBbyijBvrVtTrRliN0acX1wr0p34k8zHxvGXb2mNzSyweaSzxu3zum8xXJFUBrxgwQ8Yd0kbIS7fT+QqIrWj/DN0SXD+/dwe9YBP7D2/dh8+S4pvfkL51H34KeKm67z7+XPbTBD0T/Sb0XwMzLTOrn+CoMDm8+5LGFexAfHmcgaukAVtpN6ou9A3+Snzhx3rvnt7ocdp80hb6ff3ZfSi1f/dexcR79wl6iq2x/zf36d2hiSnUa1xgp6n77uOX8rgxvoJunXg9OI/3IB3eu0+qndZ7SD7xvbFB/P/0OSzEMnXex9n7SutUsFHbLPqLfClDGm3q8V/EMb9Y/PHj2ySGfXxcsSOJIehypU97n6iYt/pHe3vsSeIRcZ2fu6Jf4jh5DEoxIH6XD8l8BoAlcGMw98lGcPW1kbqh7a7J2Um9BKXGVSZfBLvk400cbygd+F/cEyZkb+8X92Qmcy17St7qN0XGmn2sfs0kqCdkIbRAdhZDxBpSxIxcH4KMMXW6/xshbjVB5uRYfdA/l9r+0kaX+XxuzLcFokEcXYkhPYbWqzjeCB3s4lXLH5BPfG/1lGsQuq2D7FJ5Up+zx5yQQg5S9NdpX51u9/Wb8zGcxMbP7sO73GIh+NDLLuhZGteWyzViHvrk5CZ1Cgcrr68d/II2I1Pxu3y2JfNg4AdZHQMoD5paucjuCg7EqhmOTNqGFbZtGyfzdNUUSQAyYzvcxONSAS+ZlFfRzdggqz3BwuMowdrg9vS5bQfi8xPbQrYmdo4MtLF9s7jCZh0ziIlEH5mIU+IaO/619h39kvHHxdC1sabUp/pJXCgC1br6GFKTj9ShDGlsr3AdVRfwQB8hKyyuUIYx7DXKS2muvS4L+U8f3zYLwK/NrvzpY2nXCN8pW3Nj6zFUvRCOzDFxwSl1o3W4MrYaLxcbie9zeqIMqZVXKg/t+mxMHndCDlI7jlz31SXtBZMRMaxl5+KtNG6nvOuLrP3Q1fa316V2Wl+0GZmK3+WzPZknqxADGACQVE3KfifxVdq2u7RiMOQc6MEpjDUSONxEAh7yv66pGzARPZH3+IQAF3sR7JL3JLesra2dmPDWS1Ncm3H8BPnmbdyhexziQiUsBAO5S1t/VAbSmOjfks05/Uptb1Ge6Gfuo0QfxJLGB2VIURfjSsVgqS7nFyVP/OMXnKrM62WvIb+U5trrspgP9wKudZrTNZB+MYbQP9FLLZqyWPXooBal3R3ouPus43slu/G90iNnu9hmy+M8fM1GpSswQppgFdr11en2fe2kzuorNqs+nXgb0Mdjpf3o9SnYD13VmDGer+jW+ETwMPM1ZA5Mxe/y2Z7MdYDlgPXBI8bJpKx2WTmwIMvK0eU6b8HV8gcCBwcIeMhHkoUMretc3awssSdXJmOj3I5psYSeFaYJrtAPdpWuUa5TuRnF7oVJPaufHvfG+UQ/i5vWLVeHMkn1vYJ7SPpfq9NtMR7kor+NYV2OPtdSLRNtdZnKY4GXLCJUfbyPIQdpLoZy/ZIymbvCQluVF3Uo4QwdRqTXfa/I/Jqf7LjKloZ8ujZGHNEWqZUl1311un3STghVLd6TusxiQo+Dtkj1GGjX54ukn/Ix5CT1PfbZdr5/8AtkjUzF7/K5PZnngioaI0YGUrcg4FpS3DzSD+V9+ShfBcDIMgGvE7yQAR2W0A2ytD25slI9dNpJmuAKnbW92k7UF9N5N0n0r5Kf1U/V5/psWZbql5l0oKvFVMpRhhRletE7tA7jQIa6z2UHGo+70U7LRVlfmmuvy2weNqAcad8Yvs7EUKaf31FrIjhk3u2QfpN1GDZPJb7P6Jn1r7Y/1yfUD7IRsiAHKcp12len2/ldqzlmR1+kSXsVx6E8ibchfaQNfKVktC/HNQuK7At20GXIONfaov5KKn6Xz23J3B5PQ+mffnBP8e1GHG+kE5MPrswKP5aLrMQp0l8d02OsiamA107SK+qmbUCAIIWNmChj+bK2tnYOm1TmtE9xDeNFuwrX8KG00ztx2w/tZqRZ/WbIm4NVrq/Vr5mE1QmXP0aW6zRmRZZvK/hZ3PwONcgYUwdcbJ9w33f+UwFxjH59aUemmcRz9SIP5UjtGFLeF0Odfs1uMb6rIvJwRNtpa+K3VG91Gnid+L4jW80JnTqjV2e8HhvHxJGWW9JBtwn5ZE6XMvRFavt0yhvbfbx16gq265gP/0WR9THGtnLtdaldiQPRfkAqfpfPjckchBuOTmR162/oAH5Y7cYVEI69ZOWLl8H0My5TLhMUjre6L8BhrODMAaDpyVPA09f+Boa+C+sWbYBcHSh9eb1bGDNRjsQiwWFm3w6uIk/biGttm8/L6l0dw8Wyaf4t2ZTVb6bNpbGmlOf0awhd3WMgK8FV44gYsXiD6OUETP59Ce2C3Y38/L/dxH95Mn0i4QG7zJi99tv2iS2Ft/URO6JL0h7YDIih3LjWNhBcBitvE2QgBQYz08T3HfvU7rZTJ/bnfZvom+inFoNWHvCw5Xq3K3Vol8jN3682hrPzOe75HO56gaVjvqdPEtcdXZX9or+1p2O7wjgZX/llAA65e0L8Lp9tyXyisjkDbl0m4N1ah3scv3ZcqV9+sr3HWNybTbXH5t7w3Iu+4nf5kMwnLjAEvL04e0961o4r9duKzNPTufZ55fydzJ7uhzG61h6b/bbQ3/34lO878bt8SOYk86oWJRKUU4N6i37UrzypbIE/xyjjX3ts0ndl383BRvwuH0/mr6+vbq2/5+fnMBQTIkAEiAARIAJEYA0ENtmZr6E4ZRIBIkAEiAARIAINAiRzRgIRIAJEgAgQgZ0jQDLfuQOpPhEgAkSACBABkjljgAgQASJABIjAzhG4fzJ/Obvj8exedu4oqk8EiAARIAJEoIRAHWTeR7i6TudLFtnyKX2sjGvXQ8YY0ubaOI9Wfzm5g16ICYaHoztfJMW3diE9urOs2HwblB3c0Rc+GnDa3os7RaxO7qKrmCcCROBuEKiDzIfCOYUQp/QZqs+YdrXoMUbnCtpeTgd3CgwkeU/ORSyFuAKpe90v7oTOFdhyCxU0fi/nozs8OB638AHHJAJbILAtmcskfNC7A5l8T+6iJmc/4WAnIbuyWPfizkez4/LyUKYm8aT8kO7u1kAVOob0fIJOIKKM7mvocY8yNbaIHZR17A3x1Cl/1AKDRxG3R8WHdhOB+0FgWzJ3zumdgpNjVNkpYJKRFBO2b5sSfWzn8S9NVFIOEg3Hrvqodg3fJfqrsfUxMdqsMf6dy/Q78uMx7tDtUbr/qs/gY2nrr7kDlTuoWSzH+LDXsYIZIkAEdo7A5mQeCdyTtXrO6SfjhogPitATAteE6Im/3QE3391syF+co/us5SyMgRTj6GudRz3TYQhY7Ox1ToospOSE56FJ3ZK3vc4BxzIiQAT2iMD2ZO7kyFmO2i/uhB1zZ3JWpK7rSnmNvG4j5fZat10qjzGQQq6+1nnUMx2GgMXOXhelPDp5GTDP/ScAAAFASURBVPsH41YElBVEgAhUisANyFz49ehOp1P7pjEmmZezO8W3j4X0w5vLmvTjrr0h/O7GS8rb5+f+GTz6r+UEpX/yb3Aol3ElH3VfS5E7latxBJY5n0o7HRC2353C02eWfqzFF+D6kGIdEdg3Ajch8w6xxUm3IejmyDz/5jKeica3mvGynKSY4HHEeji4oywaUL6Wr6A/UoxjrhPd0YbpdQQMjk382EcssoBLXzQ8qEXd9UHutYW+p/TLp/dqL+0iAo+JwG3I/DGxptVEgAgQASJABFZBgGS+CqwUSgSIABEgAkRgOwRI5tthzZGIABEgAkSACKyCgCfz19dXt9bf8/PzKopTKBEgAkSACBABItAgcCAQRIAIEAEiQASIwL4RIJnv23/UnggQASJABIiAI5kzCIgAESACRIAI7ByB/wfa+x/FXDZ0yAAAAABJRU5ErkJggg==;" vertex="1" parent="1">
          <mxGeometry x="-451" y="-169" width="499" height="108" as="geometry" />
        </mxCell>
        <mxCell id="m1NRcoiXuXsXT9jAsaJI-4" value="" style="shape=image;verticalLabelPosition=bottom;labelBackgroundColor=default;verticalAlign=top;aspect=fixed;imageAspect=0;image=data:image/png,iVBORw0KGgoAAAANSUhEUgAAAfMAAAB+CAYAAAAwVvj5AAAgAElEQVR4Ae1dv47kuPHWQ+0C26lzP4CjwQDefgQDv8SXbLDR9itcuslm209xyQGObhInExkbGAvf4WyP+UNR/KhiiVRLIilRPTVAg/+Lxa+K/EhK093961+/Gf0oBuoD6gPqA+oD6gPH9YHuxx9/NPpRDNQH1AfUB9QH1AeO6wOWzP/5z3+amh9ykJryVXZd+ym+iq/6gPqA+kDbPuDJ3FT8IzK/x7/n5+d7HNbuY2odV9VvdxdRBRIItO6bCbU1OxMBsruSeQaIOnEywJto2jquqt+E8bRoVwRa981dwbnjzsnuSuYZBtaJkwHeRNPWcVX9JoynRbsi0Lpv7grOHXdOdlcyzzCwTpwM8Caato6r6jdhPC3aFYHWfXNXcO64c7L7ccn86WJOp4t5kgZK5ct6BdI6cQqAGBFRHFf4BMJIn0uyiuu3pPMZdavpdz2bruvs53ydoQiqFMId4jRMI1DN9ukutaQBBMju+5M5TXS3QGCh6Lqzud5aAFLlqfwKgKcnzpO5nPpFbxhTnz5dRtuPCpodW2QaV2OM85cAx1s2RznCTHhu6sc3mY4AF5Ffbf3EfJun29Wcu5NZ5b4cdx7PHKc2HyNw0zeF7btbNlV7jUFuMIfs3gaZ88VvLlApJ0vlz5W7oN7kxIGcDfVBl0cPJ3G1eJ7N+cSI5RbGKEeYCdBt/dyNEfV3a7HM1CXWfLZ+1Njq2JmbhG7rnc2SA7nXjePO476CRkohsMj2czpVe81Bafc6ZPd2yZw7EcX9jtIt4snyznRrNgcrzDE5cSCP62nz+lP7sHi6E8+VHhsQSQ0nel8nNn7Iv8NwElfgSSdeAIQ8hMAEaRmifGU4Sz/qUxK5zYN9sRlJ+EPGBc4s/fjYgQ/lRXUkH4Xe/fy6Xk7+yt2f7rgcyKK56PPDG6vgdoXro/HVCCy2ve2pt6+3h/UB8k9hr/PZPtq8nMkX+o3dU8wPVmuvDdciQHZvg8z5QmHj/JqdHI2dCLAwIDS9I2Jdt4tR02RujOFEhLifQM6c9nqWxp0Y/1qrH6Dd3AXpenYnSvgCQowRaRmifGV4W7/TmMin7AgfIH14vJp+8l0T+BhC1zFwoySPS72gs6yDNMJbcqRcTS9G4KZvyrUWayXZyK6zRODYaAq72zoTtzjwg8Vaa4NcBNohczgUHxEWAOdA4bNnRvaoh7YyjfwK4eTEQX9RfYZFc0RIaGcX/5O50IldTkC+ufH17ycyiSvHE3EZAgqZjzTKV4Y39aMT+eUc3hBR30k7RvxhpW7U7KZ+o/nm+p/SUWIn65LMWB2ZL+tkjFObjhFYbvtBBk7Z/oRORdxePI5mlMf9euRbqKhhTQTI7m2czGMOAMdBKJFAPkKUyzTyK4STEwf9JfTpSXxYxINJY9tSmSPzGD6Qf4fhJK4CT1qAzhf3nw2izGOKfISZmM3Vzy6OuDK60ffIHzJ0nKuf7wK6IfQFLMLLKM4fIaAMIZohjZDyeRz1NCyGwGLb857pZN11ZjaZky1jfsBlanwTBMju7ZO5vEYHNH5RcKTnnjHaBXQj8pucOCM9keFCOxHYxPHjceU0sew4aHwTV1tC7D0kJ3GVODn/sFhZTIdHMt4X0AZhJkjz9eufOfaL4w07Wt2ZP2ToOF8/6oTrxeNCAY4dj1t+PvW+ascwgT+JFHVEL5rMRGCZ7XlnZHs81hPX7LgJFHaXGzM/37hYjW+CANn9AGSOBSB8ASe40nM7SrurdC9pZLw/NBv8yYkDKXICIN9Enk3x6ypMIKpvF0Axfi/n/iKTuMbw9Bsfgmp4MesEX0AbhJmQLdOvJ0hL6JN2FP6QoeNN/QI/Yws39ZnSUWBHNwl49OVxts0n8HdjQtvgBJgxXm06ILDM9mRDsr/YxNn1dNiUeXthPg3dGZRtvfYyFTTqHq3tT+YHNsXkxLk1LkZAtqpYLG81v+fyLFw3AKaKftIfMsZRRb8MfbTpdgio7bfDuqWeyO5K5hkWyZk4tKPF41SrgpK5t0QOrl5IxUgN/Ub+kKF/Df0y1NGmGyKgtt8Q7Ia6IrsrmWcYRCdOBngTTVvHVfWbMJ4W7YpA6765Kzh33DnZXck8w8A6cTLAm2jaOq6q34TxtGhXBFr3zV3BuePOye5K5hkG1omTAd5E09ZxVf0mjKdFuyLQum/uCs4dd052t2T+448/Gv0oBuoD6gPqA+oD6gPH9AE9md/xbk2H9noR+OGHH0yNz+tFVEeuCLSNgJJ52/ZR7RSBVQjUIHKSqX+KgCLQJgJK5m3aRbVSBLIQAJmTEBm/lQfSRjseZimljRUBRaAaAkrm1aBVwYrAfgiAgKEBJ2jK4+W8TOYjjRDyNFQEFIG2EEiS+a+//mp+++038/Lykq0xvVChf4qAIrAdApx8KY4/xGPlyJN1ZD5kaagIKALtIDBJ5n/+85/NP/7xD/Pf//43S+NXQeZzvsFtTp0spO+wMWE29UtO4vvAR7/6VBsSpx++p7zDd+qP8tl3oAdlw3dgl1QVBEwyZfxWnpJ5SUscTBb55tofqsppuwdMR9P3BkaTZP6HP/zBlCD0V0HmN4C2xXfmPHOGnF3HYnY255MgQ7fgjH+pif2wSXbnMwRIm+I71mU+pUH0JFaWz+hqSRVJ4JKgIYvX43mIU4g6kMHLNH5nCFT2y6bQurOx3iRzIvQ//elP5m9/+5v597//vcoWAZk7AC/sV5f8d5RTmf9FpzonllUDmNMIjpEcX/9zmDjB6S9GzQGVkR6RJBwFWNuf72QkD5G+HBkVw1Ff7qckU/lQZVSOgjIhJ+CS8TLaqZStEOC/Itj/QhqbU1DC+2JkjaKyuWsy5LgwusbjJ4udzPOlvwno67o1P+jTzW8rkzb1/a/1na+DrlgWwl/84+0uZqzL0H7z2zzgXjicReZE6H/84x8tof/++++LVRiROf99bpxkgt9Vdj9l6a20uMvtG3BHjo4vMom21/J4PQJX+uVt/DgN8hCORuUIdZRfIUPo4G8KRL7xfu50kOWFVStJ4FxWYTVV3JYIYEMsfY+neXzpmoy2FEbXwJ5Ag2Vd1rV9soNcINMRNI3D/nSrXRRMZ2/pxJwP2rEfteLzEHW2tEHFvmaTOQidnqEvPaGPyJw/kwGgCDFYSvNrSeS3GkJ/hNCTp3kc5RpOI8AxQ1yGIwliYo/KC2aQLv7k0rmFxW3cYvnoGmNAWkNFoAYCMf+UvsfTqTjpZmUxopX6oi1ClCONEPmQKfmAzxsbP5srbxuLU96tdrI/LofrdND4bDIvejKXxqO0BNYaZ8JxWgMc+iOEfjzN4yjXcBoBgRmdfHE192R38a1ds7vhcL0pLjemvHwaAS1VBNYhYP2OzQ/4HEJI5elUnOpSmfRjyEB5ai2P5fM2kMP7R56sx+sgjpC3ke1kOtVGyjhIehaZ5xA54TDrZL70Sqc1gOEYCKEfT1N8ajKgjYYDAhw/m0un7uEE7K+1fYu+fLN3Ekb6OUVkvr0aZJtTWe7114giUAgB4WN+rlA+W4d8PnUblPVzCdfith4SMRXRH0LU8enENTs/3AkegAirF+p5eU5fmx/qGm1HmbItw8G3OWjkJpnT2+x///vfzX/+85/VQ5xH5nCk/gUH/y8+q3vduCGcBCG6F2l67nsvL1xgiFVDgZ/tiz/3sm5zspji5cKp9aa4rjH9qJNIvl0M6VnflRbTg/p5cQBVYE0EsN7YNed89v921vuiW4tYPumCNnZDTH4811fh8wgxMJ4O5HXslg2VJQ+4jbuUkSJ2r2ukHXXB5cixMhWOGJ0k8xL/lkagBGR+RJRUZ0VAEVAEFAFFoGEEJsm8xBfG0NiVzBv2AFVNEVAEFIFFCLhHXfwUbOPs+fwieVq5BAJJMi8hHDKUzIGEhoqAIqAIKAKKQHkEPJk/Pz+bWh8l8/KGU4mKgCKgCCgCigAQ8GSOjBohkfm37y939yGs7nFce4+pdVyPoN9f/u+vpsZnb9/Q/qfX0dZ9U+03bb+1+JDdlcwzNhk6ceo55lqn3qJd63Yn/WoQOcncAl/tY/28at031bbrbTuFHdldyVzJvLkFuvUF6Qj6gcx//f1/ntgRR0h1EEcYa4c8CqcWFC2rs1AvwbV131wyFq0735+UzDOInBxNJ858Z1syMVvH9Qj6gYCJpEHUMqQ6sTyeDzkIl9hR69aZH1O4tu6bU7pr2Xp/Ibu3ezL/+ZN58/aT+SmTcGs6SPWJUwyDX8yHt53pHr8uO1l9eW+67p358PN6J1uDf3VcM33qCPqBfDlZ83isHHkUoi7Po/gae2qb7eZP676pvlDHF8ju+5A5J6k58czFt5YDVZ84HJsMDH76+G4gcpLJ/j/0zcdf3AL91Tz4/PfmM/ojQt94UxXgKvu3+r8zH76E4+i//c1tPJJjLDORAv2AU0Mh6QcS5qSMOEJO2jyP50MOwlpzSeW+Dt9UO5exs8SR5vz+ZM4XQU5ePM7rNBSvvqgXwYBImp2uv7w3D1/gUEPZ58fO5wfk/70/1Q9t0LZeKHHlulHcbkCS2Axj6h3+q3lYeiNxw8ekfnJi7Z0m/UC+nKRlPJZGHoX4QBaFe49N+5+ed637ptpv2n5r8SG770Dm7srXnQLfPL531+mp/BfzjRZuf2pkxHRj0V0LzNx2wcSxOrIT7XcilT5tyVHq78jowyN9PzLaURt8Z3dnHj72jxr6On0+SHW2THmyDTAjzAnPQVc7dkGU1Ndwgq/jjBzzAFfSF/pwjJEXjId0E2MZlefrP9KvQh8cj6Vx0o8TcMn4Ul20fr6/LcGwdd9cMhatO993yO47kDlbnPlCnYyLxTm5iM8feCknkROHnyC/EYnGToTIt8Q0nIa/xU7Ask6KmJMyX8wkEXssBcaSECF/I9KSuJK97In87Tt/exBu8NwGyD0OoLr22j2Gf4ExxPQr5VMl5JB+JQmcyyqhn8qot1a17ptq+zq2J7u3T+aO0PCLWH2Ik2wdYOY63GjiMNL7/MhuEOQYiHQ8kboxyLTc3Mj0HJnfp8icCBw63iDzmG4FSDGF8whXOfZYOqYP2YNuOgqTelS/WP875bWuX8rump+/nqnt8zE8oh+S3Y9B5hu/gDXXmOOJQ9fWtNH4ah6gsyVdkCa7lZAEKdMxwkKduTKTZM6JnJxfkDn6ARmxTcpcbHLqjXFluEEnqSPyR6EY26h8+eSP6ldAbg5mvG3r+nFdNb7c/6YwU9uXxXMK65bKyO77kTmeE/NF2ZKUO3X7fFqM+XV0O8aKTRy61n6g9wDwlrgfR6+3fdYdO5mnrtmxKSCygCyEjkDSMl+Mve6XMvyJfMCSPyKw8thpltJ+PBuQVgxXP3b0LzDwE4vyme6jdmifEUb1y5DndS8ko3X9So9X5Q3zWG0/YPGa/ILsvg+Zu2egdAU6vADXGwHPO4N8WqDZi2Fb/6tUyimiE8fqGj4GwJiC8cbISIwTL8D5/7VnbWbLtKfu4WbAEjXHkmxgNx79pmn8GKN/MREv3qWwKJmfxHW0KRleFuz1pnGGL1LW+D/5qH6FiLgEjq3rV2KMKiNOWmr7OC737i9k993I/B7APcrEkSftRdjTFTsn0Q1Iq3VcVb/XuWAumjcbzJOYPq37ZkxnzcufT2R3JfOMSXecieNOq/z6ec647Qtkw6l+q0nXOq6qX/7is5UvvbZ+WvfN12aPrcZLdlcyn0NqiTo6ceos6q3jqvrVsftWC98999O6b94z9nuOjezuyfz5+dnU+tDvmeufIqAIKAKKgCKgCNRBwJN5HfG9VCXzmuiqbEVgjMAPP/xganzGPWmOIqAItICAknkLVlAdFIHCCNQgcpKpf4qAItAmAkrmbdpFtVIEshAAmZMQGb+VB9JGOx5mKaWNFQFFoBoCSubVoFXBisB+CICAoQEnaMrj5bxM5iONEPI0VAQUgbYQ2J/Mny7mdLqYp1K4XM/993F3nTlfjTGl5ZfSc46cYro/mcupM50FZE7Hro7F8mQuxYyzoG+tmoUAJ1+K4w/xWDnyZB2ZD1kaKgKKQDsIHIPMZ5Pa1Zw7Rz5og7AdzOdrUkj3p8tpIHKSyb4B7uSZmrDDN6qdDe2D7B8ResnNFuTODWX/Vv+TuVzDcfTfAMds78fSmWGMczs9fj0QMI1Exm/lKZkf3/46gteHwH2RuV3oGRGRPQsR4i6uUUR3tsGhQVzP/Y2FHdBQdj27mwwLGSN/05/qlx7qS+LFdaO4JeckNsOYeh2u5ryn8iWBWCBLErgkaIji9Xge4hSiDmTwMo0rAopAGwjsQ+aWdHEK7PzJz54g/YkK17vuitjl00Ier8dPlk42nSj5oh/0C/mFDGFl840E6dOno/o6vS5n0hXtwjGcL/0jiL5OPybw0myZ8mQbDJewJRwGXW0xx8yR+66nW+jDMUZeMB5KiLGMyl9HBifgkvHXgZ6OUhE4HgI7kHlPWCCl5MmZSAiVkgt3f9KM1kMbhHKR9/nljMZPkHQC9nrxLpBP/eO5vi2PnIBlnRQxJ2XSxcQpfc3sMZAEKNKQz8excdyeyE+n4VbBYdNfr7PNm3UJl4b/bKxrC92VJHAuq4WxqQ6KgCIwRmB7MvcE4pThablA41ktr0PN5tRDGx76U79b7P2JeAzMqhxGetczO/nH9IVe6EimMU5gINNzZE6eqomwoaMg7w02Phj27FDiI9MxQWQPsvkrJvUYLJqnCCgC94dAO2RuyQnk4ggbRMYX7iX1+DU7l1HNjnS6pivzqzlz3T1psnFJfWSadJR5SFM4R2aSzDmRU0eCzNEPcGKbFGRtHkqdZDqpkBhbsp4WKAKKgCJwXAS2J3NLHANp22e/nHQdlj6f0pa83HNlsYiP6nESDeTSoj685FXLZKTP+XwerrZT+op8E3vRTNZBGqHESuTbYiJiYOKxHPAHDvwRgcWUnWYpveszc+gtx8HTGAhhwHQfbYhQT0NFQBFQBO4IgR3I3D3nxgttRHxuUSZCwTPQE8snvFFGpII41Q3qcTJDHCEJoTi/ao+RQa5xbR94oa0XFtWX64U+hX54Ac7/mzdrM1tmbPPEMSAM7b+n9ZudHn+uf+RZPvTdMmRjt90KrHq9aZPS6ws/6vgNxpb6al+KgCKgCGyIwD5kvuEAtSvaw/B/NVuIiDzZL2yu1RUBRUARUATqI6BkXh/jBnpwp1V+/TxHK/sC2fhKfk5TraMIKAKKgCKwHQJK5tthrT0pAoqAIqAIKAJVEPBk/vz8bGp99PfMq9hOhSoCioAioAgoAhYBT+Y18SAy//b95e4+hNk9jmvvMbWO6xH0+8v//dXU+OztG9r/9Draum+q/abttxYfsruSecYmQydOPcdc69RbtGvd7qRfDSInmVvgq32sn1et+6badr1tp7AjuyuZK5k3t0C3viAdQT+Q+a+//88TO+IIqQ7iCGPtkEfh1IKiZXUW6iW4tu6bS8aidef7k5J5BpGTo+nEme9sSyZm67geQT8QMJE0iFqGVCeWx/MhB+ESO2rdOvNjCtfWfXNKdy1b7y9kdz2ZZxB69Ynz8yfz5u0n81OGjv0E+cV8eNuZ7vFr3ZPVl/em696ZDz+vd0rStzqumXgeQT+QLydrHo+VI49C1OV5FNcFN8+3a+PXum/WHv9rlU92Py6Z5xJdbvstSKeAjuTcP318FyHyr+Yh2Ch8NQ/+m+Hem8+e8BbmE6EHcpcvfsGCJOURJrRh+ELh8I2B/Te+uY2ErTOUvfn4S1ESCvTzOC0fZ62Fh/QDCXNSRhwhJ22ex/MhB2EtnVVuGf9p3TfVzmXsLHEkuyuZZyzG1SdOETInMg5Py5bciQgZ6X5+7MzDl97ROPkvzf/2vb8FgCzpdHPSEleuA8UtOSexkeP9ah4K30hI/eaMacs6pB/Il5O0jMfSyKMQH8iicMtxaF/LF/7WfVNtutymczAju+9E5vy050gkOE25k6FbsD88DqesniTctbE7mfnF3Z/U2Ant7Sczq/0KUg8mjtVfnmj7tCdPq19MN7QTuHzsr9nH+rvT9uR4nUx5ssU4AzKkfqHDi/nmy5bmD5uBnNNwgCvpC304xsjDeHwodPb55SbRSL8KfcyZwKk6pB8n4JLxVJ+aX86/crBs3TdzxqZt0z5Gdt+BzGMnt57EcJrzJ0O7eA8nxm+cmILFXCzgKJvdPg3SlAPJicNPkFbX2ImQxkD5UrfYiVbW4ePnBJKU2ZN+lFiBkZUj8PuONELggzRCme/S0IfruCAucSUb2BP523f+9gD4DT+oMtw0UF2bH8N/gR4p28f0S9XdI5/0K0ngXNYe49E+Mc9uh637ptrytg3XYER2357MAxJxA5N5lsTem8+xfFwN8zJbfzi99wv8gvYrF/jRxGEk9vmRXW1L/WgMXH/qX6ZjebzOHJnuefnmZM71XIHtCNdbWKT6IHvQ7UVhUo/ql9Jhh/zW9VuzWGmbeSSgtp+H0735E9n9fsgcJM8XT0kqPM3jvM2C+Hji0K0DXVezl8uoH/7MGv0iRH8yTfkyD2kK58hcS+box5/Q5aZLnMx9fVePbWrWTJoxrhNYAL9kKHRN1pu/CET1KyB3DVaxNq3rF9NZ8+b73xRWavsyOE5h3GIZ2X17Mo9dJ1vSGK7Tg2t2TtKcNCyh4TkvLdhDew82r0+LLU8H7dc5QGzikO4Pj+/7l7Rkn3izPHYyj+HC9eWyRL7FKyrzxQSPJjjhCBn8EYHH311vjx5/TOQT9tQ+ehvA+5+Ix3ANbMexkHJoXPwkLsbpfUO2W5CO6regfQkdpmS0rt+U7lq2bi0Cbmr7PPyA49FCsvsOZO5I1b+8dfsFOP9/1mJhxrNRSxxUxmTaN7VFfUkIQfsVi3F04lg9sMnoHQv90JXvGyL6FPGKMTy4F+Bi458t026U2JU/NhQMq56s+w2Rf0Th8ViaH3snYtkES+IqN3ZsDL3eNM7w5cgS//cuJ3ZUP4/XsrFK2SXSretXYowqI+5navs4LvfuL2T3fci8oYUvx8hHmTj8pJ0z3llt6Yqdk+4KW7eOq+r3OhfMWf6/wt9Lym3dN0uOVWUN85DsrmSeMfmOM3HcaZVfP2eMOzmJ7Atn4S1Asu5E/63jqvoNi8ga+2qbevi17ptq+zq2J7srmU+Qyi3H04lTzzFvYb9neet2b12/PW13732r7eusSa37Ddndk/nz87Op9aHfM9c/RUARUAQUAUVAEaiDgCfzOuJ7qUrmNdFV2YqAIqAIKAKvHQEl89fuATp+RUARUAQUgcMjoGR+eBPqABQBRUARUAReOwJK5q/dA3T8ioAioAgoAodH4Nhk/nQxp9PFPLVohpZ1axEv1UkRUAQUAUVgNQL3T+Z7keqcfufUIdPyejy+2uwHang9m45v2Gj83clcrhTKH9c5mQvt7GydoexkMw805hqqEo4cr/M19Cv0Cf8SGHaEOXbNi8rIDoO9AlvYvs7mfBpsxXUM6kI/82QuqfrnM/OJs7lCTxor+7ueu96nUM5xwThF2elyTfc7ANPXGflrZ7rZOpxNqC1TfGlUjIGw9WpEyriduB26juvk8Jdj5GnSk+RTHkKv+4T9PI6+chB5upwCH7b+cWMcgQ9BlxtthrEzn/eayPFPjCfwR/j4MBeGfphdfD/LI0rmyzGb1wKOM1V7Th1qP7feVF8HLqPFF4sQxf0klguIHePVnLEgI43GB8YgR/V+EeQLsjHXsyM7iSF8DSE6pjQW9SVlvP2JiJstkDE5Uh+0j4WyPdXheTYe6/OUIBp0csOHeB9o4vuO9RfLS+ggN69c/tK41JPSIHRZBtmp/KA8Nh5xQwo5CNGeh1NlvJ416ync1NOm7hzbLLiGVnZCz1S/Mp/S8HnoE5MblDEcpLyperAL6qwItydzN8AL7Y4BlAWN7VzcCSDYiWGSB3XdDhvG9jtsLBjhrsmTwKjeCuRiTaroJsZAuz3CwuJIztrjdr4O9Tx3BfoAk5jijefZsboxc5+BTwTq00IcEldQ/OoS5BcJ2wNXjgnyEPoyhuuiMicAbYis4KDIQx8yjfxUGKvP81z8ejn1G0BDm5jOnC+pUyM6YmNFFg95Hyyf1itaY/yGk8oW63Cjb9bfzWhMT+QhlEJS+a7e1BhxcWOrQg5C2Q+lp8qC+oTJAh/msmP+lup3lD+2RXT80FW2l+lUPa4v6qwI9yHzYBciAAMAFLJF2Z4kDNUdTmlJZ4gZ0IKT6GsFcOMmFXUDJtQp4hYf5+A0Xjg7xS3J1RzrePS1c+wCeTr5E7rFwW/K3EbQkTvVtVdYII3ayrUsX8yjQFX4Es9EHkKUeb9iPpgqi9mFybOESnfJLM+KkmnIT4Wx+jzPx91cQJqHMV0d6Sd9CO0DvdimKYrVhA5sU2oPMCwddLE0EdWT6REbO7WR+X4dvjVGpiD6RsiKfHSqzFeK+Iksk/oSfkz2yN+o7EYb2wW3o81IjB/6sD776jP76TvLPoTsQ+bcWWPAWuchp6NFmZ2yYmBBlpTD83lcGpHLh1HWhDV147IRR0i6xuKUV2usa/DJbcPHKMeckk2TkTB4zaQuceNYxcqQRyH3H8whYD9VxuuiP8hFe6rD83g+2twKZXspg5Vjg2ddAfkIp/qJ+VCsXZBHa5fbaLP8pA4pLKf0mlPG+h6qMzK/ZaehUR8L5MXH6JugLkJfwCJTZaxasL7xdyZiPoR2XDbiMkRdhFQ+ZQu0t/XZ+Hl7jmlQH5XEeu2znV18enmkDTLnAIzGQIN0pC7BQZpCTB5qj/yp+KifzAzeJ++3hG5cNuIIeV88zsszh9ZEczkemU4qmT9JkqIPURBZdKB3DEPkIaS6FOeb3rll6Acy2DynE6i/7kY9Lhd5U2GsPs+TcYwB+Qin+rBlwoci7eyJmhNBF3m3g9qt1uGmkuMKET392hgrIwmpfFsUvoBGG2X/6JLZ1ioCOQjH2nUZxiQAAAbKSURBVE32FVaP+DDkIgwbjGQH/janDdWBrZzspI3Rt5Qr06l6lJ+qizYzwv3JXF6dQ+mnizn7txtxvREa1YJLTiSA8PkAyRuF2rNrevRVJKyoG40PY8BYEWKMmEw+v+ZYiwC2TIgfl2sm05BG+fwknqqH+q8g7BchdsNlr5EpHfosQWHrEn4SN3tCdTKWlAFf2cbN+9F/KsCP0W4qHMkUi2KsvB8ke++EvbCEvqjdlA+N5NL6JNYVXNGO6rpOkI8QfZcMR7LZmjAqE3qN9JgY4xI/4nJTOvA6Xi3xAhzaIpRtRvn92K2/jcp8J71fQBb3eXcjwN3CwMaoL+XKdKpeigNRf2bYAJm7Cch3tXZCO/Bdvt0B0qAswP0z0RNeBuPPuGi3yPL7Jq4+bQ4I4FFfM9G6Va2ibrii82PjjjIVrzXWW1iULudjJNnSjnacdLXZLzr2et3nlVbmePJ6Qu/nQfDoQeIIMpV4g+jpBoz+LRD1HBS9/Pi/3fh/eRJtbi6Gt2CWOgZjSbytTzLRLqgPbGb4ENpDP5m2+W6jFMHKFqMNQsgqGZJsPv/l7WVQRuOP2zbQN9DPjTHy76B+kzbSgW0qF45d+rC/FZg7DpDvSKf02AO/lv4rNzFyPFP9BDq7RzIBtssT25P5ch21hSKgCCgCioAioAhMIKBkPgGOFikCisCeCIS3c3rbsqcttuhb7Z2DspJ5DnraVhFQBBQBRUARaAABT+bPz8+m1kd/z7wBS6sKioAioAgoAneLgCfzmiMkMv/2/eXuPoTZPY5r7zG1jqvqd39zeW+fL9V/675ZapwqJ5yDZHcl84xNhk6c0KFKTbDWcVX96ti9lP+8Zjmt++Zrtk3NsZPdlcyVzJu7XWh9QVL9lMxrLsw5slv3zZyxadv0vFMyzyByciydOGnnypl4reOq+tWxe47PaNveJq37ptqpztwhu7+Ok/nPn8ybt5/MT5nkLR1RJ049x5RYt5Ru3e6t69eSLe9NF7V9nTWpdT8hu7dD5lOEy8t4fC45r2kzQ3Ywceb0MafOjH5bd6xc/QJcv7w3Hd+IEYbdO/PhC4X41i6E78yHn1/MN1sHeZ158/GXoo8SAv0atNdYv6/mwWP13nxuUOdcn9H2ejJ/zT5Ac74dMp+7wKwhxDVtZugzXjRv7Aor6XFvTixx/fzYmYcvPbYUt+ScxJKIy5G6teFX8/D49VWTOcfvp4/vTFcYj3vzvyOPR86dI49Fdb/BJ4yj9iFzWoQ7fjqgxfe9+cwWZ7vg4CRBpzJf9ov58FacuKw85LFFPMjvwtMdAyHHYYKJAx1d+OEROoGIIroX0iNnDC22DXAljDi28B3kjTB0/jTKnz8xbmEy0q9iX7d0iZWH+gk8kriVwyemk+Ztg29o+236VNvujzPZfZeTOT8pfKNrVDopYJGhEAv29xfz+TEkel/PLqCphYryQaKMDAovusHECfRnffNrYtQprMe9TaYAV4eVPZG/fedP6PIq3X7Vp7uOp7o2XekEGtOvJRuE+ok58l2m91+IWsLu6LqEtlfbHt2ec/Unu+9C5p7ALVmz55x2Me6JuGOEHhA4J0RL/MMJuP/uZkH+RAa8TUEiDSYO+kCIfniax1Gu4egKPMAV+EjsZBr1eEgbKbrhKUzqUf14vzvHQ/0kecu0LvhzF8wj1Attr7Y9gs1K6Eh234fMv9OVM121fzUPeLlptDgzUudlqThfQHkdypdpXjcjHkwc9IEQcnmax1GuYT0yt9iWJ6/A7g3aL9RPjF99cORvJRbTVmSEtlcyb8UutfUgu+9E5i+Gnos/PL4f3jTGIvPzJ/Pg3z4m0ndvLnPS96f2nvDxctQAGOUPz8/tM3i0L7j4BhOH6R/8GxzyqV+Ke911og32CrEIcIW9OI7AMmZTqsdP4rId5GWEUf0y5KVwWJsv9eOPtfQFuNDX1mLcajtp+1b1VL3K+iHZfTcyHxGbX3R7gu6vzONvLuOZqH+rGS/LUYgFHlesXWfe0KYB+QUX3WDiQH+E6EekA91RR8PgtBTgCmwEjr3/yEcstIELXzTs2Kau1AIS1Q96NhCO9eNzir98WnZBKYWvyllvl7Ht18tSOxwHO7L7fmTewKKX66w6ceo4e+u4qn517J47H7W9fivla/UBJfPMDUXri/pRHbt1XFU/JfNW51brvtkqbkfXi+yuJ/MMQteJU2dRbx1X1a+O3Y++oLagf+u+2QJG96gD2d2T+fPzs6n1od8z1z9FQBFQBBQBRUARqINAV0esSlUEFAFFQBFQBBSBrRBQMt8Kae1HEVAEFAFFQBGohMD/A126y3k4QttSAAAAAElFTkSuQmCC;" vertex="1" parent="1">
          <mxGeometry x="-449" y="225" width="499" height="126" as="geometry" />
        </mxCell>
        <mxCell id="m1NRcoiXuXsXT9jAsaJI-5" value="" style="shape=image;verticalLabelPosition=bottom;labelBackgroundColor=default;verticalAlign=top;aspect=fixed;imageAspect=0;image=data:image/png,iVBORw0KGgoAAAANSUhEUgAAAfUAAACeCAYAAAArDJM8AAAgAElEQVR4Ae1dvY4cu9Hth5IATer8ewBHCwHWPIIBJ76JAkV3X2FTJcq0T6FEgCMpcbKRocAQcI1re80PxeZhF6vJnv4f9uxpYEU2f4pVp6p5SHZrt/nnP//ptvx5eHjYVP6WulP2trFBfIkvY4AxwBhYHgNOXY0AuuUlpH6L19PT0y2adXWbaseV+l09RKhAAYHaY7OgNosXImD9TlKfCagFcqYYdjMI1I4r9TMO4201CNQem9UAdWOKWL+T1Gc62AI5Uwy7GQRqx5X6GYfxthoEao/NaoC6MUWs30nqMx1sgZwpht0MArXjSv2Mw3hbDQK1x2Y1QN2YItbvxyT17/fudLp3361zSuW23Qr3FsgVRFKEc251XBETSBeivLp+C/Wx3TfT7/HsmqbxP+dHO+rA/Uq4D4zAqoDAZr4nwlUjYP1+XVKXBz5MFJgwmubsHi9NBKX6UvkGLrFAdkN8d/endvLrbGrvT/e9ZUjXjTmPQBlX51yIlwTHSz5HPdKFOF/UTy82AxFOIsGt9TPP2zjdHt25OblZ4atx1/mFdrJ7H4GLsWl831zyKf3VB7nCEuv365O6ngTHAlYKtlL5WLkT2lkgs1131Cc7/gELB3H1eJ7d+aQI5hLGqEe6EJPL+oUTJBnv0qS5UJdc99H6SWevY+MuErtvd3ZTNuhRN427zscGzKyFwCTfjxmU/hqD0tXbWL/XSeo6mCQfV5hhMi/WN66Zs0iY4RYLZFaE1tM3aHfx3SQadkCP8jpByKrb4cc2Ofuzg91G4SCuwFN2wAAIZUgBA+5tivqZ6Sj9ZExL6L4M/sWipBAPCw50RumnbQc+UpbVUWIUerfP1+P9KR7Fx92elgNZ8izG8vQEKzlt0fowPxuByb73I7X+jf7wMSDxafx1PvtXnvdniYV2gfc9FweztWfHuQhYv1+f1PWE4fP6+F0CTu0QMEEgdW1AYn73k1LVpO6c04SEfHyQglv9sa3YXbB/rvcP0M8GaKJy9LvAGHaYKEOKDri3Kepnppf1O/UJfciPiAHRR+c3089+i4IYQxoGBm5yq/NWL+hs2+Ae6SU5Vi7vJyNwMTbtXIu5Unzk51khciw4jd99m4FTHcTBZK3ZYSkC1u/XJ3UElrYME0EIpPTdtCJ9tENfe4/yDVILZHaIrD7d5NkjpihE2pzcvezg7YOoFzmx/e1kBnHVeCJvU0Bhy3GP+pnpRf3Eb/fn9MRIxi76MRMPM3WTbhf16z1vYfwhHS12tq3IzLWx5bbNAjvZtY/AdN93MrDrjjt2qdL+0nl0kzId173YQkOmWyJg/V4/qecCBQGGFIjZe5RvkFogs0MU9GnJvJvMk4fHC1KknrM/O9htFA7iavCUieh8H/4nhKmLmKIc6UKYxurnJ0kcIV0YuxcPC3Qcq18cArohjRUqo+skr18toA4puuEeqZTrPNoxXQ2Byb7XI8tOu2ncaFIXX+biQMtkfhcErN/rJnV7vA6I4uQQyC+8g/QT6U4kaIGEakka9UxK47vL+ADZdvKAeTvEvoEjLyP2Fm4HcbU4hfjwWEmdOsWIsYA+SBeCNF6/9p1k6+MLfvS6mwl1pp7j9ZMBtF46bwbX2Om85+lTG6vehu5VWQ9/EWnamFF4uxCBab7Xg4nv8brPHL/jmTJ+twu06G8tlvldELB+r5zUMRGkH+okR31hhelXmeFjjgXfGY12ggUy29E+CLFR5t2VPsbCgyTt/URo7I9ybi8ziGsOz7gAEqi6D7hOiAX0QboQsmn6tUTpiX3QjyYeFuh4Ub8kztQELmOWdDTYyckCXolFnH33AfyDTegbF7QLbGXXFIFpvhcfiv/NYs7Pp93iLPoLz5MaEnV7z71KBWYzr9yuS+oHdsngA3TJLkVEvqmZNC91v+X6RbjuAMwm+tl4WGDHJvot0Idd90OAvt8P65pGsn4nqc/0jgVyihhZ4eJ1q+9HUo/wLcE1Ctkws4V+vXhYoP8W+i1Qh113RIC+3xHsioayfiepz3SOBXKmGHYzCNSOK/UzDuNtNQjUHpvVAHVjili/k9RnOtgCOVMMuxkEaseV+hmH8bYaBGqPzWqAujFFrN9J6jMdbIGcKYbdDAK140r9jMN4Ww0CtcdmNUDdmCLW783Dw4PjDzFgDDAGGAOMAcbAMWNAr1O4U9doME8EbgCBX375xW3xcwPQ0AQicPMIkNRv3sU08KUhsAWhi0xeRIAI1I8ASb1+H1FDIjAJAZC6dLL5S2Ugb/TT6SQl2JgIEIGrIEBSvwrsHJQIbIcAiBgjaKKWMl2v62w57pFCHlMiQATqRSBL6r/99pv717/+5Z6fnxdrLh9e8CICRGA/BDQJSx4X8rl6lNk2thyymBIBIlAnAkVS/9Of/uT+8Y9/uP/+97+LNH8RpD7mN8KNabMI6RvsLJgN/eUo8/vGe39lamtIgn74PegNfmd/r1z9jvWkrvsd22uqCiIWmTZ/qYykvqYnDiZLYnPuH8Ra0vcaMB1N3wkYFUn9D3/4g1uD2F8EqY8B/IaDaIz5s9p4zM7ufDKkGCae/l+GUn9AZdaAEztZn+J3uNtyuQfhyxC2fuKwl5pbIrdEjf66nS5DXlK0gQxdx/yNIbBxXFaF1g3bOkjqQux//OMf3d/+9jf373//e5ZPElIPQN6rv/IUfwe61MW/ILXNDmaWAWM6IUCK9rV/hhM7Ov6FqjGgKvITskSgAGv/Z0MV2UNkrEfBhmlvrPAnLEvlUKVXj4p1Uk3Ea+bX0Y5S9kJA/9XC9i+yqWcKSsRYzMxRUjd2ToackGbnePyp5CDzfN+eDLRtw5yfjBmeby9TFvftXwc8P3a6YlpI/8Kg7nfv+rp0/Xc/3QPuG6YXSV2I/f/+7/88sf/++++TVemRuv774NjZJH/XOfwJzeityUPu30EHdNa+zMO0v5bHGxG4yl/+xh/BQRnSnlWBWHvlGxQYHeLJgSl3Mc6DDrZ+ZdXWJHIta2U1KW5PBLAwtrGn73V+6pyMvpJm58CWSJNp3bb1Y6oNXSIzELXY4f9krJ8UXONP7cwzn/RTfzxLP4dos6cPdhprFKmD2OUd+9Qde4/U9TsbAIsURsu9Pq5Eea0p9EcKPfW9zqOe6TACGjPkbdqTYB7wXv2KBaJL3Mk0YYIJC7hcOYaGDbhnSgS2QCAXnzb29H0pL7p5WYpwrb7oixT1uEeKcsi0fKCfG58/u0fdN5eXskv97HhajtbpBvKjSH3Vnbp1otxbgL2TBgKoNuChP1Lop+91HvVMhxEwmMlOGEd23/2qvrbj92CO1lvydoGq64cRYC0RmIeAjzv1fCDmkEKqvi/lpa3U2TiGDNSX5vJcue4DOXp8lNl2ug3ySHUf28/el/pYGQe8v0jqSwhd8Bi1U5961FMb0AgQpNBP30t+6KFAH6YdAho/Xyq78G5HHI+7Y4+2frdvFnr6BUVsuT8yVItUWx/1Z4YIrISAibH4rEi5modiuQyb1LXPEo7LfTvc5FTEeEjRJt4Xjt/1Js/wAER4vdAuygv6+vJU12w/KbR9FQ6xzw1kBkldvn7/+9//7v7zn//MNnUcqSOg2g8h4n8Nmj3qzh0RLEgxvLmX98K3+GEGzF09Nfh5+fq9mA+bk8cUHyEOzTu76CeDZPT2k6K8C3yUSfWgcb46gBS4JQKYb/yccz7H/67WxmKYi1S56II+fmEscTw2VhHzSGGYvk/kNerUDY0tD4QFvJVRIvioa6afDKHlWFuVCkfPFkl9jf/OJuAkpH50tKg/ESACRIAIEIGKESiS+hq/eEbsJqlX7H2qRgSIABGYhEB4BaZ3xT6v3t9PksfGayOQJfU1ByGpr4kmZREBIkAEiAARKCPgSf3p6clt9UNSL4PPGiJABIgAESACayKwy079x89nd2s/4oRbs6kGe2rH9Qj6/fkvf3Vb/NQQH9ShPJfWHpv0Xdl3S7ARv+uLpD5zwSEgLnEE++YDvHZcj6DfFoQuMhmz+ZitBZfaY7MWnG5ND/G7vkjqJPWqJmsJzpofuiPoB1L/7ff/xR078kilDfJIc/1QJmnNfqFu7Z/JJg51L7y28I8mdMmT1EnqVU3WRyDNLR7MtWQKfiBiIWsQtk2lTa5Ml0MO0rV0pJxtiKf2Z4d+387v4ntcdZD611/dq9e/ui8zCbYXLGvLy+glAPbGzbRjm2mBXDuuR9APJKxJW+dz9SiTFG11meQZy9NieW+8ao/NvfF4KeOJ3/VFUp9JxAJiDJoxi4gxbWbqEvW4gf4Jrp/euUYv9gTD5o17/0lS/FY2pG/c+6/P7odvg7LGvfrwrfPTCvgk+q0gb23fiX4gY03OyCPV5K3LdDnkIF1bV8pbd5FQe2zS3+v6G3iK3/VFUp85MQuIAHVUSlIfhZfF9ePbxt19ah8GyXuSLmL52d0J6Qu5e79+dndvP48ad5QPf9b/3lLwAwlrsrb53D3KJMUPZEk6FiO2Q/ztm9pnh37YF/9r4S1+19e+pO4n43fu7nW3k/ITtp6kJR93YXr39c59jAQsk3e4L7XXO7zYbz0nC4jRidA/pO/fGvt+fnPvlc1r7x6jHhvYubfsBFexR2OrfZ71r4qLjbDo6bfROHNxF/00Ea+Zn6sT+6037wxhWXtsDunOuvkxIn7X1/6krndScrwqEzUm7p9mUo7lz07v2H5IP78DK7RX/bYKFgExysZ4kjbdztLrCfJBm8pIINpQiV4JrkEnv0N//Sbu2O0Ru/9jLgFnaevvV96hA6ecfqirIRX91iRyLasG+6hDefKvPTbpu7LvlmAjftfX/qQOkvMTtpByeEcq5YEU8Re32jTsyCORC8HrHXy3K47tdyBQATE6AuMhBUHqe51HPdMOw4BFgivwsdjZe7TTqV8wNmHxt97DlNVPj3vlfO36xWfmyjjdoh70/XrP+ZHiQ/yur/pIPSF97SQ5whaC/+zu0KY0uZfKV5xIBMToeIyHFOPoe51HPdMOw4BFgivwsdjZe7TrpeYkp1ev42tcPqvfCnJjLC2UVbt+a9lJOf14pe/7mLyEOBG/6+u6pC67KezQPVHLJKyOr80E9+XDG3f39p36ornQfvSkPz8IBMQYMBgPKfTW95LHO2HUM+0wDFgkuAIfjaOU2XvdTh+7l9qh/Yw0q98MOTF2Vu5bu35b2U259X/ESR/N55sh7OSZ19f+pB4/gpNjc/Wxm9596zYol8kvR4y+TB3BJ4uEbUAUgOWKQIM8kGKiNvd438sP5cp+SXAt4Jh9p+6/1Ug/SGz09xuQtTDN6rdQZoyjFeTUrt+atlJW+hzR9ykeLyU+xO/62p/UNUmvMIldy3EC4rXGvuVxa8eV+r3MifMIz1ztsXkEDI+oo/hdXyT1mQsLAfGIAVC7zrXjSv1I6rU+Q7XHZq24HV0v8bu+9iX1mQRaI+gCYo16HV2n2nGlfiT1Wp+x2mOzVtyOrpf4XV+e1J+entxWPw8PD3o85okAESACRIAIEIGNENhlp76R7hRLBIhABoFffvnFbfGTGYpFRIAIVIYASb0yh1AdIrAUgS0IXWTyIgJEoH4ESOr1+4gaEoFJCIDUpZPNXyoDeaOfTicpwcZEgAhcBQGS+lVg56BEYDsEQMQYQRO1lOl6XWfLcY8U8pgSASJQLwIk9Xp9Q82IwCwENAlLHhfyuXqU2Ta2HLKYEgEiUCcCJPU1/PL93p1O9+77kKwxbYb6v8S6x7NrNK6CYXNy94+Sqt8i6PMndy8O8G26upMvfFnggYjFapu/VEZSf1mxQmtvDwGS+l4+JanPQvrx3LjzY9tV8p6ki1g+urOQflxdPbozOs8a/ZidLJFbooZVup0uQ15StIEMXcc8ESAC9SGwL6n7yfjszqduJ4U59/v9qf072HbXdbp392dpf3aPYTJv71sZ6J/u0M4u8MA+iINkivp9d/fK5pe4e5ztCI2txIAIQllPqJD6zr7v6XD9Ak3Ea+avbxk1IAJE4BIC+5O63knJ8WpuEpZyYWuZvJtup9a7j8ezMpl37fwCIbL9JQhWqAfJWH2jfkNEtML4Ny7C79BPp7hjRxw0+gg+HNNLW1++p/8rw39NIteyKjOT6hABIpBBYH9S1+9InTouDYQYJ2ppB7KE4qX7XHlusQA5a6cYHynk63udRz3TcQhY7Ox9TopfMDbt4jBXzzIiQASIwA0iUAep+w+f1LtQTNpIAXzpPldOUgdqx09z/k0WhyUTeRxfQoblRIAI3CYC1yV1HE+bSdsfn0/ZqfsdfyXH75pstF2S33OhcUvxqnEUu+w9bJVyfexeaof2TIkAESACN4bA/qSu34MqkovvQpvGnc7n9r+I2Ul56F7qouydP5aCXkgRJOYeNvJDOQA0MjU4Zt+p+2810g8SG/39xsih2IwIEAEicGQE9id1vZM9MnLUnQgQASJABIhAZQiQ1CtzCNUhAkSACBABIjAXgX1Jfa6W7EcEiAARIAJEgAhcRMCT+tPTk9vq5+Hh4aISbEAEiAARIAJEgAgsR2CXnfqPn8/u1n4E+luzqQZ7asf1CPr9+S9/dVv81BAf1KE8l9Yem/Rd2XdLsBG/64ukPnPBISAucQT75gO8dlyPoN8WhC4yGbP5mK0Fl9pjsxacbk0P8bu+SOok9aomawnOmh+6I+gHUv/t9//FHTvySKUN8khz/VAmac1+oW7Pfl4nDnUvvLbwjyZ0yZPUSepVTdZHIM0tHsy1ZAp+IGIhaxC2TaVNrkyXQw7StXSknG2Ip/Znh37fzu/ie1x1kvrXX92r17+6LzMJd4/gEQA3HWc1DL65968b17z9PE3fT+9c07xx779uE4gl7DbHdWFMHUE/kLAmbZ3P1aNMUrTVZZIv+Yzl+z4jJbxrj82S3ixfFj/id33tT+qarMbkF07CWwWMgLiVbC9XY7MAgy8f3nSELjLjb91r3KsP34INn91dLH/nPmI8IfadF1cJrnZ8r/8b9/5Takf7R4DCAqRo47IHB75O9ANOFaWiH8hYkzPySDV56zJdDjlIgQHTdWJpbRxrj8217aW8Ng7F7/q6LqnryVCTmM7rNhXlBcRNg2oVDISs1W770zt39wkTUlf38W0Ty5NFwM92l9/1Qd/tUour1k3yfiFSxKazqfXNZ3c39YTiQoxZ/TaNgQu65MYW/UDCmqxtPnePMknxA1mS5sZj2XbPwlRsa4/Nqfaw/bjYEr/ra2dSD0fBYVf46u27cMxeKn92P2QCj7tIRVAzJrw1g0RAjPK8jmqH+1PIpb33JGn1D6T0/q387W/0kz7hb4E3jbv70L6CaNu05SDX0TLtTjfBTDAXPDtdvT2GMGWsbkc/LsgiLsl44/omuEp/6KMxRllPvrGlVz9OhyH9e/ptMMbQ+JfqRD9NxGvmL43N+uXxtQTD2mNziW3sW44t8bu+diZ1NUnrCbuYN5N0cTIvG7xVMAiIWrbeUf4QMs3tEFHuCarbHf/I7YhtmxJBF2U+u0FCjlgajNWCxNsH+TuRl8VVdPA79Ndv4mlCutALC6HwmkDa+uP4HP4r2JDTT8fBtfOi35pErmVd2zaOPzzP1R6b9N+w/+biI37XV92kHoitfWeKXSx2ttsANBZYATFpq8jv41t1omBtEPKJhBpssPd2kWPvx8j8OUTqQuTQ8QKp53RbgRwT7JS8Hq7W9ty96h/lij/k5GNlcs/qlxv/SmW16xf9cyV8bnl8+v66nHCt2BK/66t+Ut/5Q62xjhEQ07ZynC0Ljs/uDjp78gV5qlMKS5T2XiY8W4Z7SSMhq3aoV5NlfqeuCV0eAkPqVo5arKT2bvMA9XFVNsI2qyPKe6mxrVc/3YasfivIXQvb2vVby07K6ccufd/H5CXEifhdX9chdbxH1pOz5HvlMinrY+p6nCYg2oAREr2T7wTwVbm2L+yc/dfkprx4/I7FgZAG+iANRCJj5mU+O/8awMrQC4IgQ7868PLU7ja/MNjODzlco+0gT4NB9IOUK917/dB/QZrVb4G8qPtKMmrXb217Ka97Fun7DouXFBfid33tT+rhHakcjXYfyrXOwPvQpFwmavUB2d7/xaoUHAJir87rmr4egE2JvTlSMnbiQ7n4f/VVn9Ey/S68OynwhK2xFB/4BUi7eGpfc2j92w8Y8YFez96ViEjLLeLaW5zgdQxSsTP94HKL/2ef1W8DHDQmU/K16zfFFradRlL0/TS8biW+xO/6ugqp3wKYAuIR7LA770k6y9G7JtMdyKt2XKnfy5w4Jz03OzwnOX1qj82czixb/jyJ3/VFUp/5AAqIxwjIsHvVx9JjbPYfmnW7/L1srR1X6rd8Etorll7aOLXH5kvzx172it/1RVIfQ3CZNgLiXk57SePUjiv1I6nX+jzWHpu14nZ0vcTv+vKk/vT05Lb6eXh40OMxTwSIABEgAkSACGyEwC479Y10p1giQAQyCPzyyy9ui5/MUCwiAkSgMgRI6pU5hOoQgaUIbEHoIpMXESAC9SNAUq/fR9SQCExCAKQunWz+UhnIG/10OkkJNiYCROAqCJDUrwI7ByUC2yEAIsYImqilTNfrOluOe6SQx5QIEIF6ESCp1+qb7/fudLp33xfr993dnxrXnB8XSxoU8Hh2TXNy98sVHhyGlZcR0CQseVzI5+pRZtvYcshiSgSIQJ0IHJPUlxLe0v57+HIlHb/fnzKE/ujOyYLh0Z3jb5o7u47+J5YLsSdyFwJl5QkmsnB4lBS/SQ5pWFD4Nihr3OkFrjJAxIK+zV8qI6kvjFl2JwJXRoCkfmUHFIdfhdSFlNPdsyd5IURFvo/nxmEjrxcBU8uda08FIKto24QKrYPkPUkXsbH2PrrzmspM0PuaTS2RW6KGbrqdLkNeUrSBDF3HPBEgAvUhcAVS17u/QCbJ7irsFMPEfX/udl3t/ByOk8NOLU7yceemdmynezeq/1K/eP3tDre9jyTq9cvphn4Gl/v2+L2vv3OjZdqdLuxMSFHGhQ5OhIdj/6nlrXDRbdXdMfTRGKMM9sTU6BzLX1ZGE/Ga+ZeFIq0lAsdEYGdSz+3kWjLDhiruFP0k3u0gnSaoZFI3EznqRvdfx3F6R+l1hUFavNgg5Va33A7XttH2j5LZkn+WYIGRl2Pwc7hHisFwj9SWh3vYiOoVUr9DP53iaQLwa/8ATVj0hZMHaevLc/ivoMsRRKxJ5FrWEWynjkTgpSOwL6knZBKgt2WezM7uMVeOI2Nd59t3u/l2op/Qf60IUGT2eFZH3lY/sUHrL+Pb+1yZbjNGphdb2DVrWZHEAQRIG+nY8tAukY2+C1Mr097nxIs/5HTkBZN7DhaWEQEicNsI3Aapg+y1r+zEr+91XvdZlJdTCDnGVh+hyTj6nTbGRYrx7L2U2zLcSzpG5lxSxziW7C+WB2PU4gbmLU7j2EGSvS8OYBcmxYasIAJEgAjcBAL7knrumNmTR3fMnhy/a7LWE7nk43tgmbi7/tErur0U6vukf+yxOCO6n8/n7p2yHjOQrP9AzZRnPzCzbXCPNGjr8crt/qVeCFZjCAuNDP3qIOLvu3e4jikX8dIue+SPseekRt/El1qetNM7c9tPt2WeCBABInCDCOxM6oFc40dtgTRk8o1l4aMtOyGbe7w77X8oF77sNu0tEST913Kst0N9dBaIEe9+T0L4JQL2fbvXCOfwoVz8b9/KHugucgdl+gWTehWAhUXEGqTdLoziq4uIx9Ty3DcTUdj8jLLdCzFYtXqLnelHlPx/8/MhZ08iQASOicD+pH5MnA6rtd5hb25E6WRg84E5ABEgAkSACAgCJPWbj4Owe9XH0lvY7D9MS08FthiGMokAESACRKCMAEm9jA1riAARIAJEgAgcCgFP6k9PT26rn4eHh0MBQmWJABEgAkSACBwVgV126j9+Prtb+xGH35pNNdhTO67U7/ae5Rrifg0dao/NNWykjP7zJ37XF0l95oJDQGSA9QNsKSa140r91vf50phh/9Yntccm/bTNsyN+1xdJnaRe1eJEgrPmh5/6bTMx1ezzo+hWe2weBcej6akJXfIkdZJ6VSRa+8RE/UjqtU76tcdmrbgdXS/xu76OS+pff3WvXv/qvswk5aWOFBCLMq6sW1GvK2E1RZ9BXCvQn/qR1KfE855ta4/NPbF4SWOJ3/V126S+IbkKiMXAGTPumDZCYrqdzldAcEX7F+iW4PrpnWv0wk3sb964958k7X77Xvsb5d64918DXqru1YdvZT/N0DPRb0b/LTDTMrP6CY4Kk+bt5zSuYAfiy+Os8Q3YSrtJdSKj81fiCz/WO3f3Wo/T5ZO20O/nN/e+1P7tOxUT79xH6Cm2xv7P7uPbpo0p1GtcRNdsDH0ujxvjK+jWi9fGebxH6fDOfVTttN5j8onvM/bdfQoLskyd9lMSK43WqWCjtln0F/lShjTaNOC/iGN+0fjlw5skhn18XLAjiSHocqFPZ7uKeat/tHfAniQeEdfds9CN07jolzhOHoNSDIjf9UVSXwBkCeQY1EOyEWRDbaRubLtLcg5SL8GpcZVJGEEv+fgwxwdLPwCf3R0mZm/vZ3dnJnUte07e6jdHxpZ9rH7tZKgnZiG2QHoWQ8QaUsSM3GNyn1Kn+78WAlcTZU6O1Qf9c6ntL210mc/nxnxTIBzE0YUY0mNovYrjTdDBLmK1/BH5xPdWT7lvwrNk6yC7VJ7U5+wxJ6aQgxT9dTpUp9v9fHY+hpPY+Obev80tGoIPveyCnqVxbbncI+ahT05uUqdwsPKG2sEvaDMxFb/ra19SD4a+l9UyAPPgqZWMrJThSKyi4dCkbVhx27ZxUk9XUZEMIDO2w8M8LRUQk8l5E92MDbL6Eyw8jhK0LW53n7p2IEA/wa1ka2LnxICb2jeLK2zWMYOYSPSRCTklsKnjX2rf0y8Zf1oMXRprTn2qn8SFIlKtq48hNQlJHcqQxu/Aa9gAAA61SURBVPYK10l1AQ/0EdLCIgtlGMPeo7yU5trrspD/+OFNuxD82e7S7z6UdpHwnbI1N7YeQ9UL8cgcExeeUjdZhwtjq/FysZH4PqcnypBaeaXy0G7IxuQ1KOQgtePI/VBd0l4wmRDDWnYu3krj9sr7vsjaD11tf3tfaqf1RZuJqfhdX/uTerIqMcABCEnV5Ox3Fj+lbbdrKwZFzpEepMJYEwHEwyQgIv9jS92AieiJvMcnBLrYi6CXvCe7dW3t7MTEt12a4tqO4yfK12/ijt3jEBcsYUEYSF7a+qMtkMdM/5ZszulXanuN8kQ/8xwl+iCWND4oQ4q6GFcqBkt1Ob8oeeIfv/BUZV4vew/5pTTXXpfFfHgWcK/TnK6B/IsxhP6JXmrxlMVqQAe1OO3vSKc9Zz3fK9mt75UeOdvFNlse5+FLNipdgRHSBKvQbqhOtx9qJ3VWX7FZ9enF24g+HivtR69PwX7oqsaM8XxBt9YngoeZryFzZCp+19f+pK4DLQewDyIxUiZntevKgQZZVo4u13kLspY/EkA4QkBEPpItZGhdl+pmZYk9uTIZG+V2TIsl9KwwTXCFfrCrdI9yncpDKXavTO5Z/fS4V84n+lnctG65OpRJqp8VPEPS/1KdbovxIBf9bQzrcvS5lGqZaKvLVB4LvWQxoerjcww5SHMxlOuXlMncFRbcqryoQwln6DAhvex7ReqX/GTHVba0JNS3MeKItkitLLkfqtPtk3ZCrGoRn9RlFhV6HLRFqsdAuyFfJP2UjyEnqR+wz7bz/YNfIGtiKn7X1/VJPRdc0SgxNpC7BQP3kuIhkn4oH8pH+SoQJpYJiL0ghgzosIZukKXtyZWV6qHTQdIEV+is7dV2or6YLntYon+V/Kx+qj7XZ8+yVL/M5ANdLaZSjjKkKNOL37F1GAcy1HMuO9J4DI52Wi7KhtJce11m87AB5UiHxvB1JoYy/fwOWxNCk/n2Q/rN1mHcPJX4PqNn1r/a/lyfUD/KRsiCHKQo1+lQnW7nd7Hm+B19kSbtVRyH8iTexvSRNvCVkqE/bpN89kM86DJmnEttUX8hFb/r67qkbo+tofzXX91d/BoSxx7pBOWDLLPij+UiK3GO9FfH9xhrZiogdpP1hrppGxAoSGEjJsxYvq6tnZ3jJpcl7VNcw3jRrsI9fCjt9M7c9kO7BWlWvwXylmCV62v1aydjdeLlj5flPo1ZkeXbCn4WN79jDTKm1AEX2yc8973/2YA4Rr+htCfTTOa5epGHcqR2DCkfiqFev3b3GL9lEXk4uu21NfFbqrc6jbxPfN+TreaEXp3RqzfegI1T4kjLLemg24R8MqdLGfoitX165a3tPt56dQXbdcyH/3WR9THGtnLtfaldiQPRfkQqftfXlUkdxBuOVGS16x/s4ISw+o0rIhyHySoJH43pd2CmXCYqHHv1P5TDWMGpI8DTk6iAqO/9gwx9V9Yt2gC5OmCG8nr3MGXCnIhFgsPCvj1cRZ62EffaNp+X1bw6notl8/xbsimr30KbS2PNKc/p1xK7esZAWoKrxhExYvEG4cuJmPx3QrQLdrfy8/9dJ/5XKdMnEh+wy4w5aL9tn9hS+LofsSO6JO2BzYgYyo1rbQPRZbDyNkEGUmCwME1837NP7XZ7dWJ/3reJvol+alFo5QEPW653v1KHdonc/PNqYzg7n+OZz+GuF1o65gf6JHHd01XZL/pbe3q2K4yT8ZVfRuCQeybE7/ral9RnKp0z5NplAuK1dbjF8WvHlfrlJ91bjMWj2VR7bB4Nz6PoK37XF0l95kJDQDyK04+kZ+24Ur+9SD09reveZy7f2RzpeZiia+2xOWwL/T2MT/m5E7/ri6ROUq9qcSLBOTe49+hH/cqTyx74c4wy/rXHJn1X9t0SbDShS96T+tPTk9vq5+HhwY7JeyJABIgAESACRGADBHbZqW+gN0USASJABIgAESACBgGSugGEt0SACBABIkAEjooASf2onqPeRIAIEAEiQAQMAiR1AwhviQARIAJEgAgcFYHbJ/Xv9+50unffj+oh6k0EiAARIAJEYCQCdZD6EPHqOp0faaCb02esbLQbM8aYNpDHtEXg8ewavSATDJuTu3+UFL8FDOnJ3cvKzbdBWeNOvvAlA/rozhGrs3t8yVDQdiLwAhCog9THAj2HGOf0GavPlHa16DFF5wraPp4bdw5MJHlP0kUshcACuXvdH90ZnSuw5RoqaPy+359c88LxuIYPOCYR2BOBfUldJuNG7xZkEj67RzVJ+4kHOwvZpcW67+7+ZHZgXh7K1GSelDfpbm8LdKFjSO/P0AmElNF9Cz1uUabGFrGDsp69IZ565S+1wOBRxO2l4kO7icDtIbAvqTvn9M7ByfGq7Bww2UiKidu3TQk/tvN+KE1YUg4yDcex+gh3Cx8m+qux9fEx2mwx/o3L9Dv00ynu2O0Ru/8VosHH0tbfc0cqT1C7aI7xYe9jBTNEgAjcCAK7k3okck/a6j2on5RbQm4UsSdEronRLwC6HXH7u6HNIkCcpPts5TSMgRTj6HudRz3TcQhY7Ox9ToosqOTE50WTuyVxe58DjmVEgAgcGYH9Sd3JUbQcwT+6M3bQvUlakbuuK+W1B3QbKbf3uu1aeYyBFHL1vc6jnuk4BCx29r4o5aWTmLF/NG5FQFlBBIhA5QhcgdSFZ0/ufD53XyZjsvl+787xa2Uh//Clsyb/uItvib+/EZPy7v26f0eP/ls5Q+mf/Pc5lMu4ko+6b6XIjcrVOALLnE+lnQ4I2+9G4RkyS7/u4odyQ0ixjgjcBgJXIfUewcXJtyXq9ig9/6Uz3pnGr6DxUZ2kmOhx9No07iSLB5Rv5TPojxTjmPtEd7RhehkBg2MbP/bViyzk0g8SG7W4uzzIrbbQz5T+SPVW7aVdROBlI3AdUn/ZmNN6IkAEiAARIAKbIEBS3wRWCiUCRIAIEAEisD8CJPX9MeeIRIAIEAEiQAQ2QcCT+tPTk9vq5+HhYRPFKZQIEAEiQASIABFIEdhlp/7j57O7tR+B8dZsqsGe2nE9gn5//stf3RY/NcQHdSjPpbXHJn1X9t0SbMTv+iKpz1xwCIhLHMG++QCvHdcj6LcFoYtMxmw+ZmvBpfbYrAWnW9ND/K4vkjpJvarJWoKz5ofuCPqB1H/7/X9xx448UmmDPNJcP5RJWrNfqNuzn9eJQ90Lry38owld8iR1knpVk/URSHOLB3MtmYIfiFjIGoRtU2mTK9PlkIN0LR0pZxviqf3Zod+387v4HlfdpP71V/fq9a/uy0zi3TKIBMAt5f9YzfZv7v3rxjVvP0/T99M71zRv3Puv2wRiCbvNcV0YS0fQDySsSVvnc/UokxRtdZnkSz5j+b7PSAnv2mOzpDfLl8WP+F1fdZB6icBK5Qsn5jWCSEBcQ05Rxkq2f/nwpiN0kal+A9+rD9+CDZ/dXSx/5z4CXyH2nRdVCa5B307PZ2cXO96+qHvjkrawY8U0p59dMH1827S45XyIMqQr6iaxJBfIWJMz8kg1eesyXQ45SIuxurINHGfeJJ/EJn2y7fxcEb7+oVf/1EHqJYA2mvjWmDQ2f4BWsV3IWu22P71zd58wYXR1QkIoTxYBP9tdPurWwO2SjARXj8E7d/da2aBw8bomi452cbIlsY/T7017wqR0jXajDGkp9meWi34gYU3WNp+7R5mk+IEsSaMNM3Vjfzx726RJbNJHLyZexe/62p3U051VmKz1BCd5tfPae6c4duIREGNbr7Pa4f4Ucmnvh+x9Lzu60O6H79P9PvO7D+2rh7ZNWw5yHS1zcKcthC34d7p6e7Qvfj47GWtLkowYhkmoh6uQttiB1wdRv25RksiI9TtMnGGsjwojv0AKvvuS0wVlSFeefAU/TcRr5hOcV9abspfHa/Ls0D/d/HzjWIjf9bU7qScPLybrOMG1Oy2Qlz1qTfpe2VECotZH73Z/wC6rI8rF3qbbHf/I7YhtG+mb7ErDJFCUeYGQE8zzCxJvH+RbWza6T3CNOj67iC/KkPb0MIuUXv2yyTOvXxgTOtlU6zBUp9vNzIt+axK5lqXjnfllcbQFfklszoyfLfSizG1jRfyur/1JXSY1uxMvTXQorzBABcQkWBX5fXxrjotL9sKunJ22TN9L/pLMwV223uVaEjT3elzou2Ga4KrHRt6mPV2M/r36ZQ9YST9ZdMhfF/QL0iEdh+pW0DXRbwV5SYxTXvrMV4YHfb/s2T5qrIvf9bUvqcuEpt/x2gkO93hY7D3KK0gFxDQI5Dhbdryf3R121JfshR05O20Z7sfKLJK6JnR5CAwJYhzophYrqb3bPEAJrkYXeRWA1xJfvN5q8QR9TZ+1dS7q5/0STjygA1LoJinKkOq6FfKJfivIWxs/ytvmuRFc6fvtsK05br3j1T/7kzoIL5COP1KOE1xKOP7dsWpfE7C5B8iTztt33TvoaFcbbNEeU148fte2ow/SMGGXZT47/xrAytCLqiAjHm3DJ3h/XVwYbPfwJLgaW+N3B8GmaHskL4mfbb+AH9Yv4BL1TuNZ4tfrLPjGNutimegXcVl3jJqeQ+rS+Za+77B4SXEhftfXvqT+s303KseU8vNKCFAmaD3Byc7Q1lc4OQmIvcARO+KHb22A4Vi2aC9s8337H8rF/6OvMBot0+xmPaHoY/tIgC0Ztrjr9+s1fP1ufk+BxIdaqFib4vcYwHXlNPG78kkSC7rc+DXqbstN3CTyJtiQ6Deh39zx2K8eIqHv6/HFns+F+F1fu5P6nsZuOZaAuKX8tWTHneGcCd4Q6Fo6DcmpHVfq9zInzqGYraWu9tisBadb00P8ri+S+hyyO9T7q3a3Hf9L2Fh7/YlJ5p312P4z20lw1vzQUT+Seq3xWXts1orb0fXShC55kvqNks9RA7X2iYn6kdRrfbZqj81acTu6XuJ3fXlSf3p6clv9PDw86PGYJwJEgAgQASJABDZCoNlILsUSASJABIgAESACOyNAUt8ZcA5HBIgAESACRGArBP4fF3yIlWKdgJYAAAAASUVORK5CYII=;" vertex="1" parent="1">
          <mxGeometry x="-449" y="5" width="501" height="158" as="geometry" />
        </mxCell>
        <mxCell id="m1NRcoiXuXsXT9jAsaJI-6" value="" style="shape=image;verticalLabelPosition=bottom;labelBackgroundColor=default;verticalAlign=top;aspect=fixed;imageAspect=0;image=data:image/png,iVBORw0KGgoAAAANSUhEUgAAAT0AAABrCAYAAAAFO1XDAAAZ2klEQVR4Ae1du44ctxLtj5IBT+rcH+BosYC3P+ECN7ESBYo0v+BUiTLNVygR4MibOHFkKDAEyJDtvbwodh/2YXWz3w/ObA2wIpuP4qlD1lmyW9Nb/Pnnn27Ln59//nlT+1tiN9vbrg3j1/jdcw24+lPIoFt+RPRy//z++++5Q8wCX+48Gb59l0nufDMbjNVEzznHhDBRlo8ZyJ0nwxfP19ZXufPN/jNWEz0TPV4bvXleOL0ND6o0fPsSnzvfzAZjNdEz0eO10ZvnhdPb8KBKw7cv8bnzzWww1usUvcezO53O7pG9knyqXLdT10yIqrJLYmB1njBfSGmsOdnV8c0B0dNnM3yX0hVF4X/KSw8AXbWQ98380ThXuGasx4qekF5PFiatKEp3GZqMVH2qfIA0JiRu+ujOp2oxNfiq69O5Jblx1xu8SvNU/8IpChfxMjQfqEe6kLNBfPyLshaKSSKxNT4VC+OwXVxZnNys5ci8c36kn4N8K3+KIZwzMIyEGt23P170eCGO9SBFTqp8wG7v5KHvTNvofgtpL0+en9KVJwrAIc5Qj3QhScP46tOBjDcUgAuxdHUfjU86e4yFGxQ+3650UzZ4ARvzzvnQoD8zyZ9+U1XtDAxjzEobxpqn6LHzkg+/MeqAStYXrpghokxIkkQe0zeqdoHNoqx/417k6C3B3+wQQ5suX5ID5lfRyxP4kR0UHEYZUriEa52ifmY6Cp+MqQXPl2G+INqJ+V2wwR+Fj30HP1LWiVHWHHBXa/9yPoWjbthZsR3YkjgJ5fGJJtqtMx6Vn+yP719hDmN4v4RzhaEs/S2scyn+VaL+2OWbwpS6ZKzHix5Pms/z8VYIot9imCSkriIQMbbpPb0wJtHKAY58mMS6nT9GiQ8JX8hc7lleOC2sxM+lrHcoKEOKTrjWKepnpsP4Tm3B65sXzKng4fxm+PR9aqwZpPXA4E0uOa9xAbNug2ukQ3a03fp6kG8d29iQyLg+rkXo8EtG+eLb9Ox04VsCmy5mrMeLHohglJiM2vH4fhqJItqhr75G+UDKhCSbdtpuFmMr0IMhaXNyZ9kB6kXAgh7a55vp5Yn5QV6ncE2X4xr1M9NBfDIP5zI+DcjYyXnpmN+Z2KTbIL5WLNTj92HU3Om20Y6uBo8+SKWY8yN9nO5PYxi7trDj0xi68EgZz1WLr8a+zjHW/EWvyzEQghQe6muUD6RMSLJpwnYldk1wtBcPiV6XL8kB86vo5UnxI4u6PNdP2VVd4AjlSBe6PBafDzgcDwbGbs3vAoxj8YUhgA1pqKAM10mej+6oQ4puuEYq5ZxHu4F0sj9sT3ZqfQ++NB657vKNbfbkGWveoqePr3AqEFILSn2fxS/mGcLChGCIVhrGVDV+MuippW4nk+sxCdae7boym+NlL0/a73ruvO+eo+Y2RZgn9EG60Onx+Kr7R9UuY2BePHaa3wUYx+OTQRgX5xUA5o7zXsdO1drzPvTwLyZVGzVK5+U0f9iE+INbPup4i9OP8kWLclhDbLYnz1gzFz1MRnyztrkBW99rqbe8p/rm59R7zUxIkjc9CaFhx30J3oJjEqW9X1jKl2An/0wvT138BMEX15sb7GGe0AfpQgqm4auExAtf77yo+V2AcRBftG5IDGTMFEbFnexMcTso8Oy79/Bf+4S+0ZGzx99p/ggu8UkJuN/xNYIcMHTEMur8DrGjvgdqdGvhWNHrQ7ljXe/kDeGgwPZN1SIc6n5N9Yt42sHRTfDp+V3gxyb4FuBZ2vWa/GGsJnpDN5gHVob89sHtId/URG+Ase2qeWGvNUprfhcY3gLfAjiLu16TP4zVRG+h6C1eOVdkgBdOjrAN376zkjvfzAZjNdEz0eO10ZvnhdPb8KBKw7cv8bnzzWwwVhM9Ez1eG715Xji9DQ+qNHz7Ep8738wGYy3kzcb2YxzYGrA1cOtrACJoOz0wYakxsAMDL1++dFv87AD9ZoYw0buZqTRHroGBLQRPbNpnPAMmeuO5spbGwGIGIHpiSOeHyiBu6MfpYmDPyICJ3jOabHP1eAYgVEDCQiZlXM91uhzXSGHP0mEGOkXvy5cv7q+//nJPT0/DFgZayM3Rwc8N/4de7/tq/lXfGQ3vqxsktm7gv+qjvtY0tq+1W5UBFinJ44N8Vz3KdBtdDluW9jOQFL0ff/zR/fHHH+7ff//ttzBQG4leKvhT5QO2r6Z6Jf/891fx9Q+xSd/VbL4vWX23sfr+ZfOdRv8+uBkvY0hyXI/fjFt/P5TG4O/btt6okTS8UoXiBy+ibH2HVb+5I3BK3K0EScxAqLryQ2UmesLQ8k9S9L777ju3hvBFopfCu5IopMwfXr6KfyJmtFu7lPT1t6aOvzYViaSrdonQzMWceJ/Sr4f3Y5MA4q0hkUguBtFjQHOO79DqcrnWL4WIcPeMMaOqT/QgamKW22EYruc2uhztLe1moFf0RPh++OEH98svv7i///6728JAaSR6vOD8YmveCDHnNe8DQ8+r1kFAb9aNdy61ANU+8WutEeB42wXeK1e1qXyG+Iy2iaDt9ApvAhHxox0K812/aWM10YFtwdU4U/+VukaEI7joExVudNEaq+YmVQ4YrXpUrJNCzNZO10H3PKwMip4I3/fff++F7+vXr5NZ6RY9WYD0Rf2NF9pU0LxbSr4mHMEu2NmXrh2VbpMSsKTN6tVMScEK/CnRI8H2HMD+VEK62ocx5U3q9VyiDGmrn8bXarBegcIQdp6qvHXs1/XrIfKW1hY72FsZ5k2bGyV6ED65xzd1x9cpenph6eujKSdxuJR0pBSc4Z5P/UeINHZ9Lb7oMr6W/JDN3l2aCAkwalFR1zzuUo7ZFvI6bY2h8LTqVywQLJpXMZ8qx9DwAdeW3hwDo0Rv9Z2eXlj6+nCa5bgox8SLK3F/xwcLxIWETGPX1+KLLsO1pEGwqB3qiQfZqbR3eix40liJirZDYk6m52WVbcGHY/yjx0FcYQTVB8WbpKmxuFzyfDtAgHD9JsDM6NEMDIreEsET5zp3eioowtHjaDZofB/E8nZW/BVlFQwBsyp3qeMtxFPGQB+k9bhpm/UborUNFszaRjhq+mFOzf22+jr4Q77Oyirs4T5mjTH4EoyLIK/z2vVgsi/Twlc31uXyi4CFT9f3jWF1V8lAr+jJ09vffvvN/fPPP7Od6xa9dV7zPhvUmI6y+DkYPOTmwUt4FXdXkPi+TdtmB1QPTH1EpPDAo9dm1y8KPr4FQanEpfVfVrrEeAwPqTbkQ2giAkLC7IWPMOJ5R2i/ZaYLn4zXUV7h1H+xjh4IbYnTbO/OQFL01vjvKuJNJHq7u3dbA/rgnKscSpBuixnzxhgYz0BS9Nb4j8kCw0Rv/GQMt7RvZAxzZC2MgX4GOkWvv8u0WhO9aXxZa2PAGNiWAS968lbRrX5M9LadQLNuDBgD0xjYZaf36fOTy/lHKMsZXy7YcufpGvD9578/uS1+jlgjufPNnAhWfEz0PldvkmGCLN/9S0oWTc7cXAO+LQRPbB4xL7nzzZxA8CQ10TPRGx0wuS/ya8AH0fvy9X9hx4c8UmmDPNKufiiTlAN8r3zufDMPghUfEz0TvdEBI4uGF1Ju+WvAB6ESMYOg6VTadJVxOewgPWIucuebOYHgSWqit4fofXzjXnzzxn1YfG/zV/fqm8IV9++nic+7B1cU37pXH7uPrbw4+vK5L/JrwAeRYlHjfFc9yiRFWy6TfN+8bVWXO9/st2DFx0TvikTvw+tvG8ETIaVvO7x4/Wu98N+7u1D+4N5CaEX4FgqvLJqwkOrxm3Gf3Ccl7h5vwFK4qC1wrZhG+Fa0G3xeaFPwQaxYvJBHyuLGZVwOO0jXwjjFTu58sy+CFR8TvasRPREz2q29e3B377Bza+re3hehPBLJz9UusemDvuNTWTRhIXmBe3B33xAmEj0/diSylRhvKXwRvoUCFfxc0Y7gg0ixmOl81zXKJMUPbEm6Bd4hm7nzzfgFKz77il4IlOb7pj4IKVj8bqHADkUCFfnxwcnOjskLGaGdYAnjy5gSrBWGeOdSB3uN/dW9+ASsVYDjO7V3r6vjbdWm8h3iM9pm705NeBI8DVbvD/P6+cnJWEtEp8WTiJrgwnE7jCc4SAwhHKF+m7mM8GHMjFLBx0K1Zj6s3x39zZ1v5kSw4rO/6HEw+HtNIhRNsEpg3t1jF/Pe3UW7hX2ChXdLnzioeUGhXAK5aHZXn7p2VLqN9O3yK2lzQLCCmDQ8VhOurmGf/ZiQl0UTFlIY88kFvlCGtGVb4WnVL5vfCN/KtoPfC+wKvjWFjm2tgW+qjdz5Zn8EKz77i14U7BIE1Y7g7T3SB/dWgkZ2D0gXLDR2PJUXMqI6Egfg8vWCh+5ReeHSAa6vBbsu42vJD9ns3aU1HPKutPJHiQyPO4PTiCe2hbxOW2MoPK362xe9aJ2t7P/etqP1kLkvEDxJsxE9v8N7h51dfayN7lstC4i+BdGePByrgacWLt6lpgIc5bwIdBmuJR1jMyl6LHjCjxIVjAMsJOZ9fKTqIp6UbT9/9TH+g8dhx1vNY8Qf5uSK02vyR7Dic6zoSRBi5/fxjb8pjntOH14/+GPu0v9moRde17WQoctxzAYevVuT+s6dXup4Cz9lkUMwkNYLP23zyfljtrbBglnbCEfNWijD/bakcI7/ZRLxpLBXgluE+Qy+hKAWQd72CW6EL4w73j+9Bta+zh3fVH+vyR/Bis/+osdHuXDjH7sU2h2wIG68gIWM1oRLUEf4qntXeDjx4v6h+r93reDHrpAe1oQdUB2A1EdEapRNtXvyohJxCUGpxKWyiQcrMq7sXvne43QxiHgiHwJ3as40Rjy8Ce1XntcI38q218CcO76pPl6TP4IVn/1Fj3crmSxMIWPqhB/R3osInpRO5U4J0hz8ufNk+Kb/IpuzDtAnd76BU1L+mOjt8f/0pgpUsn21W+MjK09sMi+C13EUTrZPjJ/7Ijd8JnqpNX2c6CWCKQV0r/Lcg2UvHobGyZ0nw2eil1rDLdHb6gWiYtdeIsp0W94YMAaOZmCX4+3RTtr4xkAuDLx8+dJt8ZOLf9eAw0TvGmbJMN4MA1sInti0z3gGTPTGc2UtjYHFDED0xJDOD5VB3NCP08XAnpEBE71nNNnm6vEMQKiAhIVMyrie63Q5rpHCnqXDDOwreh1/XX4YIrVY2p9Mjc4eMeZocNbw2hhgkZI8Psh31aNMt9HlsGVpPwN5iF6fsHAd5/v9Wq92zJhj2qyHKA9L4nNRuNP5scGjeHg8n8K3TeQbIlHbptezykGoxGmdHyoz0VtnqeQhen2+cCBxvq/PmnVjxhzTZk1MOdjyPpeuPJ1c0D3iwQve6ewaSby40oSvJXRayDC1LIhchrykaAMbXGf5NAMHiJ4ECr5vWgcMgqVOz6XUl+7iHt05tC3cqSzd6XR2VX1lo7yknZtdIzj4e6118MY7FwS7wigKEPVHu9lo8uyIObuUrsAkoMyJwHX4HerzdGkPVCxUa+b3wH4rY+wvehQMYTeAYJC0KBxiyJOMOrnQ9RJw0W5ijWmpdiQBA4/P5juDXRpIfxHs+pPqj/prTcmvS1nPGcqQtnxT3LTqb79gTaFjW7fP3Hoe7i96LFISHCIQCBKk7B+XcV7a6GvuNzevbfK15Dt2gBEO3ca3JxGciyu3fpoXmVeUIW1hNtFrUWIFuzNgoqcp1wGLa0lpl9oSOog52mu7t3at/JRde3k++9sPj3a8vbXZvil/DhU9f7yVcyQCCClTLGU4Lup6fc39ZudlN9Lcj2odwWu7oVyuGaMPeHVEn40l444t7oW3ItxuiPjxblT19gQ34zl9JtD2F72+42ErkKpZkHtG/r881A8ywhPBRPvFcyf362qceHgiYwJHFxbU+aD2IoiHNY0QLMaVk4Eu7tU9Vi98NN/hPmlOfhiWZ8fAvqL37Og1h40BYyA3Bkz0cpsRw2MMGAObMmCitym9ZtwYMAZyY8CLnr1ENLdpMTzGgDGwFQO77PRSr3DOpVzIzQVLzjhy5+ka8P3nvz+5LX6OWDe5882cCFZ8TPSu6g8D7fs3EHjRSF4+uiyn62vAt4Xgic0j5iF3vpkTv3jrf0z0riCYefKOzOe+yK8BH0Tvy9f/hR0f8kilDfJIu/qhTNIj1kXufDMntd75xETPRG90wOS+yK8BH4RKxAyCplNp01XG5bCDlAN8r3zufDMPXu3qf25D9D6+cS8W/BHxzSdvIb5m8uzv3jZctI/6m8/jwj9hKvggUixqnO+qR5mkaMtlku/jZau63PlmvwUrPtctehATpDMXpZDBBK2eX4gPeD68/taFP/QtNunbDi9e/1r78N7dhfIH9xacyB/8XvCLQTBEPNXjN+M+uU/KT483YClc1Ba4VkwjfCvaBf9LU8EHsWLxQh4pixuXcTnsIF2KbU7/3PlmnwQrPtcteljYKtjY2TF5IWNMu9ltFuKrxhUx+9a9+ljvcN49uLt32O00dW/vi1AeieTnapfY9EHf8WnEk/fpwd19Q5jITz92JLKVGG8pfBE+rI2MUsEHkWIx0/mua5RJih/YknT22lzAT+58MyeCFZ/9RU8CI/z2rwMmBFD1fdW7d/UxrlAB3NnvjftAwcaOjs0LGaGtx0c7pM8SrNV1vHNh7G/cq3vBjn5VgOP7u3evq+N31QY+VmIz2mbvTk34EjwNVu+P4kXGWiI6LZ5E1ATX/fuKvzCe4CAxRGCF+vFCG+YFNnrSCF9Puyk212wr+Fio1syviXOsrdz5Zj8EKz47i14iKL3Q1EEiQYSASQU6Ag1BhHTmQhcymCDeLX3CWNo2yj32Rpw/de2odJsxfpHgC7ZewQr+K35JsL1/wKx9GXkd8RTGfHKBL5QhbdnV+NYVvwhfa+x1x+L1MjYv+NYUOrY1FsOa7XLnm30VrPjsK3oSDGG3hreQPLi3HCR9ee4ruwy0RTpzoQsZTBAL3dt72rHIOCkMGLsLiy7j6zE2e0WPd1VaVNQ1jwu8E9KIJ7aFvE5bthWeVv0yYYrwrWw7Wh8zbeeOb6qP1+SPYMVnf9GL7vPUixzBIoupKy9l2P1xG7RFutpilOOiHFXfuzvgHcKAsbuw6DJcj7WZFD0WPOFSiQrGAbaNdnoSLLITxTH+g8dBvywwvsaD8pVSWdRTA3fP9rnjm8rFNfkDwZN0X9HzwcBHwQmiB/GpA8w/iUQQIZ0ZPF2T54P4/qG5B6bGkPoIQxi744GB6huEXZWnbT45v/skDrwN/kVQjx+OmuAJ99uSwjl+dxXxpLBXgluEJ8TBl8CLCPK2T3AjfGHc8f5NDfqp7XPHd8v+CPf47Cx69U6u74jIwUR5CWY8GHghYiQCgHqkMxe6kNGacLEZHkxUgdOLgcf2fRu8zQ6oLfKjbardkxcV5jEISiUuFVd4sCLjdogxYx6Rj3jq4lzdq9QYlzw5bs1PB94IX0f9GBtbtskd31Tfr8kfwYrP/qJni7EtsCM58SJCO7dJi1QJ0qS+NT5ZNHP67dXH8O27q82db153EDxJTfT0f7odKUBM6H75arcW/ovIWKwieB1H4am4c1/khs9EL7WmTfSUWOQeLKmJ3Ls8d54Mn4leKiZaomcvEWVKLG8MGAO3zMAux9tbJtB8MwamMPDy5Uu3xc8UDM+9rYnec18B5v+uDGwheGLTPuMZMNEbz5W1NAYWMwDRE0M6P1QGcUM/ThcDe0YGTPSe0WSbq8czAKECEhYyKeN6rtPluEYKe5YOM5Cn6D2e3el0do/D+K+jxWr+PLrzqXBFeZnm96V0RXFy55shdJr7ObVmkZI8Psh31aNMt9HlsGVpPwP7i94YARjTpt+vvGpX8ufxfOoQvIsro18QF1dG39SoxU6EL2q3kCLxqSjciZVU+enxEpao7cLhr7U7hErw6/xQmYneOrNuorcOj/1WlBj0N07VipjFu7UgKpGYSbvStfeC1S5x6iYxhcZ5n0pXnggT+emxtXApkUwav90KLXRayOA5t+My5CVFG9jgOsunGdhZ9OrjWf3b3//ml0AJu4E6gCh40tA3qvF4WDQaEQki4/HGWM+lfNcW/eLdVnmujutVm+o7uRCf0TZTO7UWVw1ezZCMtdpuC+MKrsaZ+raEYCAxBBD0wfUzTFmo1sw/Qypnu7yz6DlX7RBwv04FKIIC6Wy3lnW8lIVDHDsOajaLcsFaUHvXsaPSbVIClrQptCUEq8VVLLiRyME++zE3T+MGvlCGtGVbzXer/vYL1hQ6tnX7zK3n4bGiJ8ERdnl4K0npLsmgWc/xXkskDpeSdiwarxzfNFZ9LQPpMr6WPHPQZdObGCt67JnacfG43GxOnm0hr9OWXRO9FiVWsDsDx4tedN+n9h/BszsdGFB2a3JUpYcEgomPbMCINHTtePKcajPW5mzREz9ItEnMAXd2qnySnSiO8Y/CG3OFQVQfFFtqDOzJwDGip+59haMkPM8gOHwQl2VzD0xhknr/NFSVu9TxlsUdfZDWfqdtOueP2WwjxdWlbI7mYj9w3XNEhq0pqcLuvNAV4Qlx8CXYFCG0BxmBDsscxsD+oufjtzrKth9k1EHTCqgD+FGCIQjk3hVeZHoSQUwcRf1xlo6szQ6o9oP8G22zY/fkhYXHkUe2HneDs/mF0nGvcQmt5EMwIztJEuZOfKGxZYyBYxg4RPSOcfX6R/Ui0qjYNIeUIE3rbK2NgdthwETvquay2q2F/yIyFrsIXtc9trH9rZ0xcEMMmOjd0GSaK8aAMTDMgBc9e4noMFHWwhgwBm6DgeI23DAvjAFjwBgYx4CJ3jierJUxYAzcCAP/BzbIPmXT/oEmAAAAAElFTkSuQmCC;" vertex="1" parent="1">
          <mxGeometry x="-451" y="406" width="317" height="107" as="geometry" />
        </mxCell>
      </root>
    </mxGraphModel>
  </diagram>
</mxfile>
